<svg width="462" height="95" viewBox="0 0 462 95" fill="none" xmlns="http://www.w3.org/2000/svg">
<path d="M402.55 0L402.46 0.436158C439.31 9.32783 460 21.798 460 33.4454C460 45.9849 435.73 58.4055 393.42 67.5251C350.05 76.8629 292.37 82.0175 231 82.0175C169.63 82.0175 111.95 76.8728 68.58 67.5251C26.27 58.4055 2 45.975 2 33.4454C2 21.798 22.8 9.79372 59.64 0.902053C59.57 0.664149 59.64 0.902053 59.58 0.664149C59.48 0.25773 59.59 0.832665 59.53 0.426245C21.17 9.66486 0 20.6382 0 33.4454C0 47.2042 24.2 59.9915 68.15 69.4581C111.66 78.8355 169.5 84 231 84C292.5 84 350.34 78.8355 393.85 69.4581C437.8 59.9816 462 47.1942 462 33.4454C462 20.6382 440.91 9.23861 402.55 0Z" fill="black"/>
<circle cx="231" cy="83" r="12" fill="#011E41"/>
<path d="M238.5 82.1336C239.167 82.5185 239.167 83.4807 238.5 83.8656L234.001 86.4633C233.334 86.8482 232.501 86.3671 232.501 85.5973L232.501 80.4019C232.501 79.6321 233.334 79.1509 234.001 79.5358L238.5 82.1336Z" fill="white"/>
<path d="M223.5 83.8668C222.833 83.4819 222.833 82.5197 223.5 82.1348L227.999 79.5371C228.666 79.1522 229.499 79.6333 229.499 80.4031V85.5985C229.499 86.3683 228.666 86.8495 227.999 86.4646L223.5 83.8668Z" fill="white"/>
<defs>
<linearGradient id="paint0_linear" x1="231" y1="83.9954" x2="231" y2="0" gradientUnits="userSpaceOnUse">
<stop offset="0.000528153" stop-color="#081F40"/>
<stop offset="0.0891" stop-color="#0F2646"/>
<stop offset="0.2223" stop-color="#243856"/>
<stop offset="0.3835" stop-color="#465770"/>
<stop offset="0.5665" stop-color="#758194"/>
<stop offset="0.768" stop-color="#B1B8C2"/>
<stop offset="0.9819" stop-color="#F9F9FA"/>
<stop offset="1" stop-color="white"/>
</linearGradient>
</defs>
</svg>
