<svg width="38" height="23" viewBox="0 0 38 23" fill="none" xmlns="http://www.w3.org/2000/svg">
<path d="M8.05466 11.5554C8.05466 12.6203 9.39059 13.6013 11.1331 13.6013C13.0757 13.6013 14.4439 12.5235 14.4439 10.981C14.4439 9.86453 13.6372 8.9481 12.5658 8.84484V8.73513C13.4565 8.60605 14.1728 7.72834 14.1728 6.77318C14.1728 5.39853 12.9208 4.43692 11.1396 4.43692C9.45513 4.43692 8.19665 5.38562 8.19665 6.41823C8.19665 6.83772 8.49352 7.12814 8.90656 7.12814C9.20989 7.12814 9.43577 6.99261 9.62938 6.66992C9.97143 6.08908 10.4684 5.79221 11.1073 5.79221C11.9269 5.79221 12.4949 6.27624 12.4949 6.98616C12.4949 7.69607 11.914 8.21237 11.1202 8.21237H10.52C10.1263 8.21237 9.84881 8.50279 9.84881 8.89002C9.84881 9.29015 10.1328 9.58057 10.52 9.58057H11.1525C12.1012 9.58057 12.7401 10.1227 12.7401 10.923C12.7401 11.7232 12.1141 12.246 11.146 12.246C10.4232 12.246 9.84881 11.9297 9.47449 11.336C9.2357 10.9875 9.02273 10.852 8.73876 10.852C8.34508 10.852 8.05466 11.1488 8.05466 11.5554Z" fill="#011E41"/>
<path d="M15.4442 9.15462C15.4442 10.5164 15.7088 11.5941 16.238 12.3363C16.8189 13.1624 17.7224 13.6013 18.8454 13.6013C20.7557 13.6013 22.04 12.3686 22.04 10.5293C22.04 8.84484 20.9041 7.67671 19.2842 7.67671C18.3161 7.67671 17.4449 8.19946 17.1416 8.96746H17.0835C17.0964 6.92162 17.7547 5.82448 19.0132 5.82448C19.5101 5.82448 19.9102 5.99228 20.3555 6.37305C20.6589 6.61184 20.8396 6.68928 21.0784 6.68928C21.4785 6.68928 21.756 6.42468 21.756 6.03745C21.756 5.6954 21.4849 5.29527 21.0332 4.99194C20.504 4.64344 19.7876 4.44337 19.0196 4.44337C16.7285 4.44337 15.4442 6.13426 15.4442 9.15462ZM17.29 10.5874C17.29 9.64511 17.9354 8.98037 18.8389 8.98037C19.7618 8.98037 20.3814 9.62574 20.3814 10.5938C20.3814 11.5748 19.7682 12.2266 18.8647 12.2266C17.9483 12.2266 17.29 11.549 17.29 10.5874Z" fill="#011E41"/>
<path d="M22.9564 9.22561C22.9564 11.8846 24.202 13.6013 26.293 13.6013C28.384 13.6013 29.6619 11.8652 29.6619 9.22561V8.81257C29.6619 6.14717 28.4227 4.43692 26.3188 4.43692C24.2213 4.43692 22.9564 6.16653 22.9564 8.81257V9.22561ZM24.6989 8.81903C24.6989 6.96034 25.3056 5.85675 26.3059 5.85675C27.3062 5.85675 27.9129 6.96679 27.9129 8.81903V9.2127C27.9129 11.0714 27.3062 12.1814 26.3059 12.1814C25.3056 12.1814 24.6989 11.0714 24.6989 9.2127V8.81903Z" fill="#011E41"/>
<path d="M30.7057 0.749481C29.5763 0.749481 28.8147 1.45294 28.8147 2.53717V2.90504C28.8147 4.05381 29.544 4.70564 30.7057 4.70564C31.848 4.70564 32.5773 4.05381 32.5773 2.89858V2.53717C32.5773 1.42713 31.8222 0.749481 30.7057 0.749481ZM30.6992 1.59492C31.1833 1.59492 31.4414 1.96279 31.4414 2.53717V2.91149C31.4414 3.49878 31.1897 3.86019 30.6992 3.86019C30.2023 3.86019 29.9506 3.49233 29.9506 2.91149V2.53717C29.9506 1.96279 30.2152 1.59492 30.6992 1.59492Z" fill="#011E41"/>
<path fill-rule="evenodd" clip-rule="evenodd" d="M32.8358 9.21554C33.0257 8.80069 33.5159 8.6183 33.9308 8.80816C35.1095 9.34763 36.1027 9.9754 36.8127 10.6929C37.5258 11.4136 38 12.2763 38 13.2536C38 14.4623 37.2797 15.489 36.264 16.3072C35.2409 17.1314 33.811 17.8371 32.1174 18.4142C28.7219 19.5711 24.0843 20.272 19.0001 20.272C18.5439 20.272 18.174 19.9022 18.174 19.4459C18.174 18.9897 18.5439 18.6198 19.0001 18.6198C23.9531 18.6198 28.4023 17.9346 31.5845 16.8503C33.1797 16.3068 34.4113 15.6781 35.2275 15.0206C36.0511 14.3571 36.3478 13.7547 36.3478 13.2536C36.3478 12.8462 36.1553 12.3775 35.6383 11.855C35.1181 11.3294 34.3178 10.8023 33.2432 10.3105C32.8284 10.1206 32.646 9.63039 32.8358 9.21554ZM4.91897 9.31409C5.11627 9.72546 4.94274 10.2189 4.53138 10.4162C3.52982 10.8966 2.78834 11.4061 2.30792 11.9107C1.83133 12.4113 1.65241 12.8604 1.65241 13.2536C1.65241 13.7024 1.88801 14.2295 2.5327 14.8155C3.17707 15.4012 4.15979 15.9765 5.45756 16.4964C7.61226 17.3596 10.5166 18.0233 13.8621 18.3647L12.413 16.7842C12.1047 16.4479 12.1274 15.9253 12.4636 15.617C12.7999 15.3087 13.3225 15.3313 13.6308 15.6676L16.5003 18.7974C16.6582 18.9696 16.7358 19.2006 16.7139 19.4331C16.692 19.6657 16.5727 19.8781 16.3855 20.0178L13.2768 22.3373C12.9111 22.6101 12.3935 22.5349 12.1207 22.1692C11.8478 21.8035 11.9231 21.2859 12.2888 21.0131L13.6425 20.003C10.2055 19.6485 7.16285 18.9594 4.84315 18.0301C3.44415 17.4696 2.26486 16.8048 1.42141 16.0381C0.578274 15.2717 0.000244141 14.3342 0.000244141 13.2536C0.000244141 12.3119 0.441091 11.4755 1.11133 10.7715C1.77775 10.0715 2.71018 9.45732 3.81688 8.9265C4.22824 8.7292 4.72166 8.90273 4.91897 9.31409Z" fill="#011E41"/>
</svg>
