<svg width="70" height="40" viewBox="0 0 70 40" fill="none" xmlns="http://www.w3.org/2000/svg">
<path d="M15.125 19.625C15.125 21.5586 17.5508 23.3398 20.7148 23.3398C24.2422 23.3398 26.7266 21.3828 26.7266 18.582C26.7266 16.5547 25.2617 14.8906 23.3164 14.7031V14.5039C24.9336 14.2695 26.2344 12.6758 26.2344 10.9414C26.2344 8.44531 23.9609 6.69922 20.7266 6.69922C17.668 6.69922 15.3828 8.42188 15.3828 10.2969C15.3828 11.0586 15.9219 11.5859 16.6719 11.5859C17.2227 11.5859 17.6328 11.3398 17.9844 10.7539C18.6055 9.69922 19.5078 9.16016 20.668 9.16016C22.1562 9.16016 23.1875 10.0391 23.1875 11.3281C23.1875 12.6172 22.1328 13.5547 20.6914 13.5547H19.6016C18.8867 13.5547 18.3828 14.082 18.3828 14.7852C18.3828 15.5117 18.8984 16.0391 19.6016 16.0391H20.75C22.4727 16.0391 23.6328 17.0234 23.6328 18.4766C23.6328 19.9297 22.4961 20.8789 20.7383 20.8789C19.4258 20.8789 18.3828 20.3047 17.7031 19.2266C17.2695 18.5938 16.8828 18.3477 16.3672 18.3477C15.6523 18.3477 15.125 18.8867 15.125 19.625Z" fill="white"/>
<path d="M28.543 15.2656C28.543 17.7383 29.0234 19.6953 29.9844 21.043C31.0391 22.543 32.6797 23.3398 34.7188 23.3398C38.1875 23.3398 40.5195 21.1016 40.5195 17.7617C40.5195 14.7031 38.457 12.582 35.5156 12.582C33.7578 12.582 32.1758 13.5312 31.625 14.9258H31.5195C31.543 11.2109 32.7383 9.21875 35.0234 9.21875C35.9258 9.21875 36.6523 9.52344 37.4609 10.2148C38.0117 10.6484 38.3398 10.7891 38.7734 10.7891C39.5 10.7891 40.0039 10.3086 40.0039 9.60547C40.0039 8.98438 39.5117 8.25781 38.6914 7.70703C37.7305 7.07422 36.4297 6.71094 35.0352 6.71094C30.875 6.71094 28.543 9.78125 28.543 15.2656ZM31.8945 17.8672C31.8945 16.1562 33.0664 14.9492 34.707 14.9492C36.3828 14.9492 37.5078 16.1211 37.5078 17.8789C37.5078 19.6602 36.3945 20.8438 34.7539 20.8438C33.0898 20.8438 31.8945 19.6133 31.8945 17.8672Z" fill="white"/>
<path d="M42.1836 15.3945C42.1836 20.2227 44.4453 23.3398 48.2422 23.3398C52.0391 23.3398 54.3594 20.1875 54.3594 15.3945V14.6445C54.3594 9.80469 52.1094 6.69922 48.2891 6.69922C44.4805 6.69922 42.1836 9.83984 42.1836 14.6445V15.3945ZM45.3477 14.6562C45.3477 11.2812 46.4492 9.27734 48.2656 9.27734C50.082 9.27734 51.1836 11.293 51.1836 14.6562V15.3711C51.1836 18.7461 50.082 20.7617 48.2656 20.7617C46.4492 20.7617 45.3477 18.7461 45.3477 15.3711V14.6562Z" fill="white"/>
<path d="M56.2539 0.00390625C54.2031 0.00390625 52.8203 1.28125 52.8203 3.25V3.91797C52.8203 6.00391 54.1445 7.1875 56.2539 7.1875C58.3281 7.1875 59.6523 6.00391 59.6523 3.90625V3.25C59.6523 1.23438 58.2812 0.00390625 56.2539 0.00390625ZM56.2422 1.53906C57.1211 1.53906 57.5898 2.20703 57.5898 3.25V3.92969C57.5898 4.99609 57.1328 5.65234 56.2422 5.65234C55.3398 5.65234 54.8828 4.98438 54.8828 3.92969V3.25C54.8828 2.20703 55.3633 1.53906 56.2422 1.53906Z" fill="white"/>
<path fill-rule="evenodd" clip-rule="evenodd" d="M60.1229 15.3758C60.4677 14.6225 61.3578 14.2913 62.1111 14.6361C64.2514 15.6156 66.0548 16.7555 67.344 18.0584C68.6389 19.367 69.5 20.9335 69.5 22.708C69.5 24.9029 68.192 26.7671 66.3477 28.2528C64.49 29.7494 61.8936 31.0308 58.8183 32.0786C52.6529 34.1794 44.2318 35.4521 35 35.4521C34.1716 35.4521 33.5 34.7805 33.5 33.9521C33.5 33.1237 34.1716 32.4521 35 32.4521C43.9935 32.4521 52.0725 31.2078 57.8507 29.2389C60.7473 28.252 62.9836 27.1105 64.4657 25.9166C65.9611 24.7119 66.5 23.6181 66.5 22.708C66.5 21.9684 66.1504 21.1173 65.2116 20.1685C64.2671 19.2141 62.8139 18.257 60.8626 17.3639C60.1093 17.0192 59.7781 16.1291 60.1229 15.3758ZM9.43143 15.5547C9.78969 16.3017 9.47459 17.1976 8.72764 17.5559C6.909 18.4282 5.56263 19.3533 4.69029 20.2696C3.82488 21.1786 3.5 21.9941 3.5 22.708C3.5 23.5229 3.9278 24.4801 5.09843 25.5442C6.26848 26.6077 8.05291 27.6523 10.4094 28.5964C14.3219 30.1638 19.5955 31.369 25.6704 31.9888L23.0391 29.1189C22.4793 28.5082 22.5204 27.5594 23.131 26.9995C23.7417 26.4397 24.6905 26.4809 25.2504 27.0915L30.4609 32.7746C30.7475 33.0872 30.8884 33.5066 30.8487 33.9289C30.8089 34.3511 30.5922 34.7368 30.2523 34.9905L24.6075 39.2022C23.9436 39.6976 23.0037 39.561 22.5083 38.897C22.0129 38.2331 22.1495 37.2932 22.8135 36.7978L25.2717 34.9636C19.0307 34.32 13.5059 33.0687 9.29375 31.3812C6.75345 30.3635 4.61209 29.1563 3.08055 27.7641C1.54959 26.3725 0.5 24.6702 0.5 22.708C0.5 20.9981 1.30049 19.4794 2.51751 18.201C3.72759 16.93 5.4207 15.8148 7.43025 14.8509C8.17721 14.4927 9.07316 14.8078 9.43143 15.5547Z" fill="white"/>
</svg>
