<svg width="24" height="26" viewBox="0 0 24 26" fill="none" xmlns="http://www.w3.org/2000/svg">
<path fill-rule="evenodd" clip-rule="evenodd" d="M20.357 17.6266H20.552C21.2175 17.6266 21.8431 17.8877 22.3138 18.3619C22.7845 18.836 23.0438 19.4665 23.0438 20.1372C23.0438 21.5215 21.926 22.6478 20.552 22.6478H15.8186C15.5768 23.2838 15.1557 23.8505 14.6134 24.2632C13.9799 24.7452 13.2243 25 12.4283 25C11.6321 25 10.8764 24.7452 10.2428 24.2632C9.70047 23.8506 9.27941 23.2838 9.03754 22.6478H7.36501H6.75039H4.30425C3.6388 22.6478 3.01314 22.3867 2.54244 21.9125C2.07173 21.4383 1.8125 20.8078 1.8125 20.1372C1.8125 18.7528 2.93027 17.6266 4.30425 17.6266H4.49921V12.2167C4.49921 10.3057 5.17982 8.45659 6.4156 7.00989C7.50341 5.73644 8.95904 4.84263 10.5638 4.45197C10.3335 4.09408 10.2077 3.67366 10.2077 3.23688C10.2077 2.00345 11.2038 1 12.4281 1C13.6525 1 14.6486 2.00345 14.6486 3.23683C14.6486 3.67342 14.5229 4.0937 14.2928 4.4515C15.6415 4.77817 17.3897 5.92965 18.8392 7.50763C18.8705 7.54165 18.8951 7.57957 18.9126 7.61949C19.858 8.96922 20.357 10.5564 20.357 12.2167V17.6266ZM18.254 7.89152C16.9996 6.41286 14.9833 5.25064 13.5796 5.0245C13.4448 5.0028 13.335 4.90394 13.2985 4.77147C13.2619 4.639 13.3054 4.49725 13.4097 4.40861C13.7535 4.11658 13.9506 3.68945 13.9506 3.23688C13.9506 2.39116 13.2676 1.70312 12.4281 1.70312C11.5886 1.70312 10.9056 2.39116 10.9056 3.23688C10.9056 3.6895 11.1028 4.11658 11.4466 4.40861C11.5509 4.49725 11.5944 4.639 11.5579 4.77147C11.5213 4.90389 11.4115 5.00275 11.2768 5.0245C9.59824 5.2952 8.05978 6.16319 6.94466 7.46856C5.81777 8.78772 5.19718 10.474 5.19718 12.2167V17.6266H19.6591V12.2167C19.6591 10.6701 19.1844 9.19338 18.2864 7.94608C18.2738 7.92859 18.263 7.91033 18.254 7.89152ZM6.75039 21.9447H7.36501H20.552C21.5411 21.9447 22.3458 21.1338 22.3458 20.1372C22.3458 19.6543 22.1592 19.2004 21.8203 18.859C21.4814 18.5177 21.031 18.3297 20.552 18.3297H4.30425C3.31513 18.3297 2.51047 19.1405 2.51047 20.1372C2.51047 20.62 2.69706 21.0739 3.03595 21.4153C3.37483 21.7567 3.82525 21.9447 4.30425 21.9447H6.75039ZM9.79883 22.6478C10.2857 23.6383 11.3077 24.2969 12.429 24.2969C13.55 24.2969 14.5719 23.6383 15.0587 22.6478H9.79883Z" fill="#011E41"/>
<path d="M20.357 17.6266H20.2071V17.7766H20.357V17.6266ZM22.3138 18.3619L22.2074 18.4676L22.2074 18.4676L22.3138 18.3619ZM15.8186 22.6478V22.4978H15.7152L15.6784 22.5945L15.8186 22.6478ZM14.6134 24.2632L14.7043 24.3825L14.7043 24.3825L14.6134 24.2632ZM10.2428 24.2632L10.152 24.3826L10.152 24.3826L10.2428 24.2632ZM9.03754 22.6478L9.17774 22.5945L9.14098 22.4978H9.03754V22.6478ZM2.54244 21.9125L2.43598 22.0182H2.43598L2.54244 21.9125ZM4.49921 17.6266V17.7766H4.64921V17.6266H4.49921ZM6.4156 7.00989L6.30155 6.91246L6.30155 6.91247L6.4156 7.00989ZM10.5638 4.45197L10.5992 4.59771L10.8039 4.5479L10.6899 4.3708L10.5638 4.45197ZM14.2928 4.4515L14.1666 4.37037L14.0526 4.54766L14.2575 4.59728L14.2928 4.4515ZM18.8392 7.50763L18.9497 7.40616V7.40616L18.8392 7.50763ZM18.9126 7.61949L18.7753 7.67986L18.7813 7.69342L18.7898 7.70554L18.9126 7.61949ZM13.5796 5.0245L13.6035 4.87641L13.6034 4.87641L13.5796 5.0245ZM18.254 7.89152L18.3895 7.82698L18.3811 7.80937L18.3684 7.79449L18.254 7.89152ZM13.2985 4.77147L13.4431 4.7316L13.4431 4.7316L13.2985 4.77147ZM13.4097 4.40861L13.3126 4.29429L13.3126 4.2943L13.4097 4.40861ZM11.4466 4.40861L11.3494 4.52293L11.3495 4.52294L11.4466 4.40861ZM11.5579 4.77147L11.7025 4.81135L11.7025 4.81134L11.5579 4.77147ZM11.2768 5.0245L11.3006 5.17259L11.3007 5.17258L11.2768 5.0245ZM6.94466 7.46856L6.83061 7.37113L6.94466 7.46856ZM5.19718 17.6266H5.04718V17.7766H5.19718V17.6266ZM19.6591 17.6266V17.7766H19.8091V17.6266H19.6591ZM18.2864 7.94608L18.4081 7.85843L18.4081 7.85843L18.2864 7.94608ZM21.8203 18.859L21.9268 18.7534L21.9268 18.7534L21.8203 18.859ZM3.03595 21.4153L2.92949 21.521L2.9295 21.521L3.03595 21.4153ZM9.79883 22.6478V22.4978H9.55795L9.66421 22.714L9.79883 22.6478ZM15.0587 22.6478L15.1933 22.714L15.2995 22.4978H15.0587V22.6478ZM20.552 17.4766H20.357V17.7766H20.552V17.4766ZM22.4203 18.2562C21.9215 17.7538 21.2576 17.4766 20.552 17.4766V17.7766C21.1773 17.7766 21.7647 18.0216 22.2074 18.4676L22.4203 18.2562ZM23.1938 20.1372C23.1938 19.4271 22.919 18.7586 22.4203 18.2562L22.2074 18.4676C22.6501 18.9135 22.8938 19.506 22.8938 20.1372H23.1938ZM20.552 22.7978C22.0099 22.7978 23.1938 21.6033 23.1938 20.1372H22.8938C22.8938 21.4398 21.8421 22.4978 20.552 22.4978V22.7978ZM15.8186 22.7978H20.552V22.4978H15.8186V22.7978ZM14.7043 24.3825C15.2691 23.9528 15.7071 23.363 15.9588 22.7011L15.6784 22.5945C15.4464 23.2045 15.0424 23.7483 14.5226 24.1438L14.7043 24.3825ZM12.4283 25.15C13.2571 25.15 14.0446 24.8844 14.7043 24.3825L14.5226 24.1438C13.9152 24.6059 13.1915 24.85 12.4283 24.85V25.15ZM10.152 24.3826C10.8117 24.8844 11.5993 25.15 12.4283 25.15V24.85C11.6649 24.85 10.9411 24.6059 10.3336 24.1438L10.152 24.3826ZM8.89734 22.7011C9.14907 23.3631 9.5871 23.9528 10.152 24.3826L10.3336 24.1438C9.81384 23.7484 9.40976 23.2046 9.17774 22.5945L8.89734 22.7011ZM7.36501 22.7978H9.03754V22.4978H7.36501V22.7978ZM6.75039 22.7978H7.36501V22.4978H6.75039V22.7978ZM4.30425 22.7978H6.75039V22.4978H4.30425V22.7978ZM2.43598 22.0182C2.93473 22.5206 3.59865 22.7978 4.30425 22.7978V22.4978C3.67896 22.4978 3.09156 22.2528 2.64889 21.8069L2.43598 22.0182ZM1.6625 20.1372C1.6625 20.8472 1.93726 21.5158 2.43598 22.0182L2.64889 21.8069C2.20619 21.3609 1.9625 20.7684 1.9625 20.1372H1.6625ZM4.30425 17.4766C2.84636 17.4766 1.6625 18.6711 1.6625 20.1372H1.9625C1.9625 18.8346 3.01418 17.7766 4.30425 17.7766V17.4766ZM4.49921 17.4766H4.30425V17.7766H4.49921V17.4766ZM4.34921 12.2167V17.6266H4.64921V12.2167H4.34921ZM6.30155 6.91247C5.04246 8.38646 4.34921 10.2702 4.34921 12.2167H4.64921C4.64921 10.3413 5.31719 8.52673 6.52965 7.10732L6.30155 6.91247ZM10.5283 4.30623C8.8928 4.70437 7.40972 5.61517 6.30155 6.91246L6.52965 7.10732C7.5971 5.8577 9.02529 4.98088 10.5992 4.59771L10.5283 4.30623ZM10.0577 3.23688C10.0577 3.70258 10.1918 4.15116 10.4376 4.53313L10.6899 4.3708C10.4751 4.037 10.3577 3.64473 10.3577 3.23688H10.0577ZM12.4281 0.85C11.1199 0.85 10.0577 1.92165 10.0577 3.23688H10.3577C10.3577 2.08525 11.2876 1.15 12.4281 1.15V0.85ZM14.7986 3.23683C14.7986 1.92165 13.7364 0.85 12.4281 0.85V1.15C13.5686 1.15 14.4986 2.08526 14.4986 3.23683H14.7986ZM14.4189 4.53263C14.6645 4.15076 14.7986 3.70234 14.7986 3.23683H14.4986C14.4986 3.64451 14.3812 4.03665 14.1666 4.37037L14.4189 4.53263ZM18.9497 7.40616C17.4888 5.81579 15.7161 4.64191 14.3281 4.30572L14.2575 4.59728C15.5669 4.91444 17.2906 6.04351 18.7288 7.60911L18.9497 7.40616ZM19.0499 7.55912C19.0257 7.50399 18.992 7.45221 18.9497 7.40616L18.7288 7.60911C18.749 7.63109 18.7645 7.65515 18.7753 7.67986L19.0499 7.55912ZM20.507 12.2167C20.507 10.5258 19.9986 8.90856 19.0355 7.53344L18.7898 7.70554C19.7173 9.02988 20.2071 10.5869 20.2071 12.2167H20.507ZM20.507 17.6266V12.2167H20.2071V17.6266H20.507ZM13.5557 5.17259C14.2326 5.28164 15.0693 5.61933 15.8954 6.11682C16.7203 6.61354 17.5247 7.26366 18.1397 7.98856L18.3684 7.79449C17.729 7.04072 16.8981 6.37041 16.0502 5.85982C15.2036 5.35 14.3303 4.9935 13.6035 4.87641L13.5557 5.17259ZM13.1538 4.81134C13.2058 4.99993 13.3625 5.14148 13.5557 5.17259L13.6034 4.87641C13.5271 4.86412 13.4641 4.80795 13.4431 4.7316L13.1538 4.81134ZM13.3126 4.2943C13.1636 4.42091 13.1019 4.6229 13.1538 4.81134L13.4431 4.7316C13.422 4.6551 13.4472 4.57359 13.5068 4.52292L13.3126 4.2943ZM13.8006 3.23688C13.8006 3.64561 13.6227 4.03088 13.3126 4.29429L13.5068 4.52293C13.8843 4.20228 14.1006 3.73329 14.1006 3.23688H13.8006ZM12.4281 1.85312C13.1838 1.85312 13.8006 2.47296 13.8006 3.23688H14.1006C14.1006 2.30936 13.3515 1.55313 12.4281 1.55313V1.85312ZM11.0556 3.23688C11.0556 2.47296 11.6725 1.85312 12.4281 1.85312V1.55313C11.5047 1.55313 10.7556 2.30936 10.7556 3.23688H11.0556ZM11.5437 4.29429C11.2336 4.03087 11.0556 3.64566 11.0556 3.23688H10.7556C10.7556 3.73334 10.972 4.20228 11.3494 4.52293L11.5437 4.29429ZM11.7025 4.81134C11.7544 4.62289 11.6927 4.42089 11.5437 4.29428L11.3495 4.52294C11.4091 4.57361 11.4343 4.65511 11.4133 4.7316L11.7025 4.81134ZM11.3007 5.17258C11.4938 5.1414 11.6505 4.99987 11.7025 4.81135L11.4133 4.73158C11.3922 4.80791 11.3292 4.8641 11.2529 4.87642L11.3007 5.17258ZM7.05871 7.56599C8.15098 6.28737 9.65761 5.43757 11.3006 5.17259L11.2529 4.87641C9.53887 5.15284 7.96858 6.03901 6.83061 7.37113L7.05871 7.56599ZM5.34718 12.2167C5.34718 10.5095 5.95513 8.85785 7.05871 7.56599L6.83061 7.37113C5.6804 8.71758 5.04718 10.4384 5.04718 12.2167H5.34718ZM5.34718 17.6266V12.2167H5.04718V17.6266H5.34718ZM19.6591 17.4766H5.19718V17.7766H19.6591V17.4766ZM19.5091 12.2167V17.6266H19.8091V12.2167H19.5091ZM18.1646 8.03372C19.0442 9.25532 19.5091 10.7014 19.5091 12.2167H19.8091C19.8091 10.6389 19.3247 9.13143 18.4081 7.85843L18.1646 8.03372ZM18.1186 7.95607C18.1314 7.98292 18.1468 8.00892 18.1646 8.03373L18.4081 7.85843C18.4008 7.84826 18.3946 7.83774 18.3895 7.82698L18.1186 7.95607ZM7.36501 21.7947H6.75039V22.0947H7.36501V21.7947ZM20.552 21.7947H7.36501V22.0947H20.552V21.7947ZM22.1958 20.1372C22.1958 21.0521 21.4572 21.7947 20.552 21.7947V22.0947C21.625 22.0947 22.4958 21.2156 22.4958 20.1372H22.1958ZM21.7139 18.9647C22.0247 19.2779 22.1958 19.6937 22.1958 20.1372H22.4958C22.4958 19.6149 22.2937 19.123 21.9268 18.7534L21.7139 18.9647ZM20.552 18.4797C20.9908 18.4797 21.403 18.6516 21.7139 18.9647L21.9268 18.7534C21.5599 18.3838 21.0712 18.1797 20.552 18.1797V18.4797ZM4.30425 18.4797H20.552V18.1797H4.30425V18.4797ZM2.66047 20.1372C2.66047 19.2223 3.39905 18.4797 4.30425 18.4797V18.1797C3.23121 18.1797 2.36047 19.0588 2.36047 20.1372H2.66047ZM3.1424 21.3097C2.83153 20.9965 2.66047 20.5806 2.66047 20.1372H2.36047C2.36047 20.6595 2.56259 21.1514 2.92949 21.521L3.1424 21.3097ZM4.30425 21.7947C3.86542 21.7947 3.45326 21.6228 3.14239 21.3096L2.9295 21.521C3.29641 21.8906 3.78509 22.0947 4.30425 22.0947V21.7947ZM6.75039 21.7947H4.30425V22.0947H6.75039V21.7947ZM12.429 24.1469C11.3665 24.1469 10.3958 23.5222 9.93344 22.5817L9.66421 22.714C10.1756 23.7544 11.249 24.4469 12.429 24.4469V24.1469ZM14.924 22.5817C14.4618 23.5222 13.4913 24.1469 12.429 24.1469V24.4469C13.6087 24.4469 14.682 23.7544 15.1933 22.714L14.924 22.5817ZM9.79883 22.7978H15.0587V22.4978H9.79883V22.7978Z" fill="#011E41"/>
</svg>
