<?xml version="1.0" encoding="UTF-8"?>
<svg width="57px" height="57px" viewBox="0 0 57 57" version="1.1" xmlns="http://www.w3.org/2000/svg" xmlns:xlink="http://www.w3.org/1999/xlink">
    <!-- Generator: sketchtool 61.2 (101010) - https://sketch.com -->
    <title>B388C84A-04A7-4C3E-B166-56AD12C2A229</title>
    <desc>Created with sketchtool.</desc>
    <g id="01_Homepage" stroke="none" stroke-width="1" fill="none" fill-rule="evenodd">
        <g id="V3---Call-Us" transform="translate(-1468.000000, -995.000000)" fill-rule="nonzero" stroke="#011E41" stroke-width="2">
            <g id="Group-3" transform="translate(1469.000000, 996.000000)">
                <g id="ICO-/-Chatbot-">
                    <circle id="Oval" fill="#FFFFFF" cx="27.5" cy="27.5" r="27.5"></circle>
                    <g id="Group" transform="translate(14.000000, 14.000000)">
                        <g id="telephone">
                            <g id="call-icon-">
                                <g id="Shape">
                                    <path d="M5.40965349,0 C6.12848916,0 6.8080135,0.296518856 7.38645158,0.861583092 C7.76833302,1.2140489 8.15583038,1.60567758 8.52648002,1.98611687 C8.71742074,2.18193121 8.90274556,2.37215085 9.09930219,2.56796519 L9.09930219,2.56796519 L10.7728415,4.23518442 C11.384975,4.83941152 11.7050815,5.53874845 11.7050815,6.24927476 C11.7050815,6.95980108 11.3793591,7.659138 10.7728415,8.26336511 C10.5987485,8.43680066 10.4246555,8.61023622 10.2561783,8.78367178 C9.77882653,9.27041028 9.28462701,9.76833817 8.75673207,10.2438873 C9.13299761,11.1110651 9.67212436,11.9614588 10.4751986,12.9740986 C12.0644993,14.9154579 13.7268068,16.4260257 15.5575914,17.5841276 C15.7429162,17.7016162 15.9507046,17.8079155 16.1753408,17.9198094 C16.3550497,18.0093245 16.5459904,18.1044343 16.7313153,18.2107335 L16.7313153,18.2107335 L18.7418088,16.2078326 C19.3314786,15.6203896 20.0222348,15.3070866 20.7410705,15.3070866 C21.4599061,15.3070866 22.1450464,15.6203896 22.7178685,16.2134273 L22.7178685,16.2134273 L26.0930266,19.5758392 C27.3004459,20.7786987 27.3004459,22.3564028 26.1042584,23.5984252 C25.8459269,23.8669706 25.5763635,24.1299213 25.312416,24.3816826 C24.9249187,24.7565271 24.554269,25.108993 24.2285466,25.5006216 C24.2229307,25.511811 24.2116989,25.5230004 24.206083,25.5285951 C23.2906907,26.5188562 22.16751,27 20.76915,27 C20.6399842,27 20.5164343,26.9944053 20.3872685,26.9888106 C18.3037683,26.8545379 16.4336724,26.0712806 15.0353123,25.4111065 C11.3625114,23.6375881 8.14459857,21.1311645 5.47142843,17.9477828 C3.2699942,15.3126813 1.78739563,12.8454206 0.804612495,10.1879403 C0.164399479,8.47036884 -0.0827002817,7.0493162 0.0240018876,5.712184 C0.113856346,4.64359718 0.546280927,3.72047244 1.31004382,2.95959387 L1.31004382,2.95959387 L3.41039179,0.867177787 C4.01129348,0.296518856 4.69643373,0 5.40965349,0 Z"></path>
                                </g>
                            </g>
                        </g>
                    </g>
                </g>
            </g>
        </g>
    </g>
</svg>