<?xml version="1.0" encoding="UTF-8"?>
<svg width="24px" height="24px" viewBox="0 0 24 24" version="1.1" xmlns="http://www.w3.org/2000/svg" xmlns:xlink="http://www.w3.org/1999/xlink">
    <title>94E751CF-2683-4DA2-B57B-0B0593EBC4B3</title>
    <g id="Desktop" stroke="none" stroke-width="1" fill="none" fill-rule="evenodd">
        <g id="01_[Desktop]_Homepage" transform="translate(-1194.000000, -30.000000)" fill="#011E41" fill-rule="nonzero">
            <g id="Cart" transform="translate(1194.000000, 30.000000)">
                <g id="49-shopping-mode">
                    <path d="M4.34482759,0 L3.35172414,0 L0,0 L0,1.40689655 L2.93793103,1.40689655 L2.93793103,17.2965517 L2.77241379,17.337931 C1.36551724,17.7517241 0.413793103,19.0344828 0.413793103,20.4827586 C0.413793103,22.3034483 1.90344828,23.7517241 3.68275862,23.7517241 C5.13103448,23.7517241 6.4137931,22.8 6.82758621,21.4344828 L6.86896552,21.2689655 L13.862069,21.2689655 L13.9034483,21.4344828 C14.3172414,22.8 15.6,23.7517241 17.0482759,23.7517241 C18.8689655,23.7517241 20.3172414,22.262069 20.3172414,20.4827586 C20.3172414,18.7034483 18.8275862,17.2137931 17.0482759,17.2137931 C15.5586207,17.2137931 14.2344828,18.2482759 13.862069,19.6965517 L13.8206897,19.862069 L6.91034483,19.862069 L6.86896552,19.6965517 C6.57931034,18.537931 5.66896552,17.6275862 4.55172414,17.337931 L4.3862069,17.2965517 L4.3862069,16.5517241 L23.7103448,13.9448276 L23.7517241,6.57931034 L4.34482759,3.31034483 L4.34482759,0 Z M17.0482759,18.6206897 C18.0827586,18.6206897 18.9103448,19.4482759 18.9103448,20.4827586 C18.9103448,21.5172414 18.0827586,22.3448276 17.0482759,22.3448276 C16.0137931,22.3448276 15.1862069,21.5172414 15.1862069,20.4827586 C15.1862069,19.4482759 16.0551724,18.6206897 17.0482759,18.6206897 Z M5.54482759,20.5241379 C5.54482759,21.5586207 4.71724138,22.3862069 3.68275862,22.3862069 C2.64827586,22.3862069 1.82068966,21.5586207 1.82068966,20.5241379 C1.82068966,19.4896552 2.64827586,18.662069 3.68275862,18.662069 C4.71724138,18.6206897 5.54482759,19.4896552 5.54482759,20.5241379 Z M22.3034483,7.73793103 L22.262069,12.7034483 L4.34482759,15.1448276 L4.34482759,4.8 L22.3034483,7.73793103 Z" id="Shape"></path>
                </g>
            </g>
        </g>
    </g>
</svg>