<?xml version="1.0" encoding="UTF-8"?>
<svg width="24px" height="24px" viewBox="0 0 24 24" version="1.1" xmlns="http://www.w3.org/2000/svg" xmlns:xlink="http://www.w3.org/1999/xlink">
    <!-- Generator: Sketch 63.1 (92452) - https://sketch.com -->
    <title>Shape</title>
    <desc>Created with Sketch.</desc>
    <g id="Mobile" stroke="none" stroke-width="1" fill="none" fill-rule="evenodd">
        <g id="Navigation_Main-(My-Account)" transform="translate(-16.000000, -381.000000)" fill="#011E41" fill-rule="nonzero" stroke="#011E41" stroke-width="0.8">
            <g id="Group" transform="translate(17.000000, 382.000000)">
                <path d="M4.48850207,14.6423237 C6.66111618,17.2394191 9.27646888,19.2842324 12.2615311,20.7311203 C13.3980456,21.2697095 14.9179627,21.9087137 16.6113237,22.0182573 C16.7163029,22.0228216 16.8167178,22.0273859 16.9216971,22.0273859 C18.0582116,22.0273859 18.9710747,21.6348548 19.7150581,20.826971 C19.7196224,20.8224066 19.728751,20.813278 19.7333154,20.8041494 C19.9980456,20.4846473 20.2992905,20.1970954 20.6142282,19.8912863 C20.828751,19.6858921 21.0478382,19.4713693 21.2577967,19.2522822 C22.2299959,18.2390041 22.2299959,16.9518672 21.248668,15.9705394 L18.5055145,13.2273859 C18.0399544,12.7435685 17.4831079,12.4879668 16.8988755,12.4879668 C16.3146432,12.4879668 15.7532324,12.7435685 15.2739793,13.2228216 L13.6399544,14.8568465 C13.489332,14.7701245 13.3341452,14.6925311 13.1880871,14.6195021 C13.0055145,14.5282158 12.8366349,14.4414938 12.6860124,14.3456432 C11.1980456,13.4008299 9.8470083,12.1684647 8.55530705,10.5846473 C7.90260996,9.75850622 7.46443568,9.06473029 7.15862656,8.35726141 C7.5876722,7.96929461 7.98933195,7.56307054 8.37729876,7.1659751 C8.51422822,7.02448133 8.65572199,6.88298755 8.79721577,6.74149378 C9.29016183,6.24854772 9.55489212,5.6780083 9.55489212,5.09834025 C9.55489212,4.5186722 9.29472614,3.94813278 8.79721577,3.45518672 L7.43704979,2.09502075 C7.27729876,1.93526971 7.12667635,1.78008299 6.97148963,1.62033195 C6.67024481,1.30995851 6.35530705,0.990456432 6.04493361,0.702904564 C5.57480913,0.241908714 5.02252697,1.29725645e-15 4.43829461,1.29725645e-15 C3.85862656,1.29725645e-15 3.30178008,0.241908714 2.81339834,0.70746888 L1.1063444,2.41452282 C0.48559751,3.03526971 0.134145228,3.78838174 0.0611161826,4.66016598 C-0.0256058091,5.75103734 0.175224066,6.91037344 0.695556017,8.31161826 C1.4943112,10.479668 2.69929046,12.4925311 4.48850207,14.6423237 Z M1.17480913,4.7560166 C1.22958091,4.14896266 1.462361,3.64232365 1.90053527,3.20414938 L3.59846058,1.50622407 C3.86319087,1.25062241 4.15530705,1.11825726 4.43829461,1.11825726 C4.71671784,1.11825726 4.99970539,1.25062241 5.25987137,1.5153527 C5.5656805,1.79834025 5.85323237,2.09502075 6.16360581,2.40995851 C6.31879253,2.56970954 6.47854357,2.72946058 6.63829461,2.89377593 L7.99846058,4.25394191 C8.28144813,4.53692946 8.42750622,4.82448133 8.42750622,5.10746888 C8.42750622,5.39045643 8.28144813,5.6780083 7.99846058,5.96099585 C7.8569668,6.10248963 7.71547303,6.24854772 7.57397925,6.39004149 C7.14949793,6.81908714 6.75240249,7.2253112 6.31422822,7.61327801 C6.30509959,7.62240664 6.30053527,7.62697095 6.29140664,7.63609959 C5.91256846,8.01493776 5.97190456,8.37551867 6.06319087,8.64937759 C6.06775519,8.66307054 6.0723195,8.67219917 6.07688382,8.68589212 C6.4283361,9.53029046 6.91671784,10.33361 7.67895851,11.2921162 C9.04825311,12.9809129 10.4905768,14.2908714 12.0789585,15.2995851 C12.2752241,15.4273859 12.4851826,15.5278008 12.6814481,15.6282158 C12.8640207,15.7195021 13.0329004,15.8062241 13.1835228,15.9020747 C13.2017801,15.9112033 13.215473,15.920332 13.2337303,15.9294606 C13.3843527,16.0070539 13.5304108,16.0435685 13.6764689,16.0435685 C14.0416141,16.0435685 14.2789585,15.8107884 14.3565519,15.733195 L16.0636058,14.0261411 C16.3283361,13.7614108 16.615888,13.619917 16.8988755,13.619917 C17.2457635,13.619917 17.528751,13.8344398 17.7067593,14.0261411 L20.4590415,16.7738589 C21.0067593,17.3215768 21.002195,17.9149378 20.4453485,18.4946058 C20.2536473,18.7 20.0528174,18.8962656 19.8382946,19.1016598 C19.5187925,19.4120332 19.1855975,19.7315353 18.8843527,20.0921162 C18.3594564,20.6580913 17.7341452,20.9228216 16.9262614,20.9228216 C16.848668,20.9228216 16.7665104,20.9182573 16.688917,20.9136929 C15.1918216,20.8178423 13.7997054,20.23361 12.7544772,19.7360996 C9.91547303,18.3622407 7.42335685,16.413278 5.35572199,13.9394191 C3.65323237,11.8900415 2.50758921,9.98215768 1.74991286,7.9373444 C1.27978838,6.68215768 1.10178008,5.67344398 1.17480913,4.7560166 Z" id="Shape"></path>
            </g>
        </g>
    </g>
</svg>