<?xml version="1.0" encoding="UTF-8"?>
<svg width="19px" height="20px" viewBox="0 0 19 20" version="1.1" xmlns="http://www.w3.org/2000/svg" xmlns:xlink="http://www.w3.org/1999/xlink">
    <!-- Generator: sketchtool 63.1 (101010) - https://sketch.com -->
    <title>343A0527-F8CA-480E-8AA5-28972C04F3E9</title>
    <desc>Created with sketchtool.</desc>
    <g id="Mobile" stroke="none" stroke-width="1" fill="none" fill-rule="evenodd">
        <g id="7.-Cart_Default" transform="translate(-342.000000, -315.000000)" fill="#011E41" fill-rule="nonzero" stroke="#011E41" stroke-width="0.5">
            <g id="Group-5" transform="translate(0.000000, 312.000000)">
                <g id="ICO/delete" transform="translate(343.000000, 4.000000)">
                    <g>
                        <path d="M16.453125,3.05238971 L14.765625,3.05238971 L13.8722426,3.05238971 L11.6636029,3.05238971 L11.6636029,0.471507353 C11.6636029,0.248161765 11.4650735,0.0496323529 11.2417279,0.0496323529 L5.68290441,0.0496323529 C5.45955882,0.0496323529 5.26102941,0.248161765 5.26102941,0.471507353 L5.26102941,3.05238971 L3.00275735,3.05238971 L2.109375,3.05238971 L0.421875,3.05238971 C0.173713235,3.05238971 0,3.25091912 0,3.47426471 C0,3.69761029 0.198529412,3.89613971 0.421875,3.89613971 L1.6875,3.89613971 L1.6875,17.3961397 C1.6875,17.6194853 1.88602941,17.8180147 2.109375,17.8180147 L14.765625,17.8180147 C14.9889706,17.8180147 15.1875,17.6194853 15.1875,17.3961397 L15.1875,3.89613971 L16.453125,3.89613971 C16.6764706,3.89613971 16.875,3.69761029 16.875,3.47426471 C16.875,3.25091912 16.7012868,3.05238971 16.453125,3.05238971 Z M6.10477941,0.893382353 L10.8198529,0.893382353 L10.8198529,3.05238971 L6.10477941,3.05238971 C6.10477941,3.05238971 6.10477941,0.893382353 6.10477941,0.893382353 Z M14.34375,16.9742647 L2.53125,16.9742647 L2.53125,3.89613971 L3.00275735,3.89613971 L13.8474265,3.89613971 L14.3189338,3.89613971 L14.34375,16.9742647 L14.34375,16.9742647 Z" id="Shape"></path>
                        <path d="M8.41268382,7.71783088 C8.18933824,7.71783088 7.99080882,7.91636029 7.99080882,8.13970588 L7.99080882,14.8897059 C7.99080882,15.1130515 8.18933824,15.3115809 8.41268382,15.3115809 C8.63602941,15.3115809 8.83455882,15.1130515 8.83455882,14.8897059 L8.83455882,8.13970588 C8.83455882,7.89154412 8.66084559,7.71783088 8.41268382,7.71783088 Z" id="Path"></path>
                        <path d="M5.484375,7.71783088 C5.26102941,7.71783088 5.0625,7.91636029 5.0625,8.13970588 L5.0625,14.8897059 C5.0625,15.1130515 5.26102941,15.3115809 5.484375,15.3115809 C5.70772059,15.3115809 5.90625,15.1130515 5.90625,14.8897059 L5.90625,8.13970588 C5.90625,7.89154412 5.70772059,7.71783088 5.484375,7.71783088 Z" id="Path"></path>
                        <path d="M11.390625,7.71783088 C11.1672794,7.71783088 10.96875,7.91636029 10.96875,8.13970588 L10.96875,14.8152574 C10.96875,15.0386029 11.1672794,15.2371324 11.390625,15.2371324 C11.6139706,15.2371324 11.8125,15.0386029 11.8125,14.8152574 L11.8125,8.13970588 C11.8125,7.89154412 11.6387868,7.71783088 11.390625,7.71783088 Z" id="Path"></path>
                    </g>
                </g>
            </g>
        </g>
    </g>
</svg>