<?xml version="1.0" encoding="UTF-8"?>
<svg width="24px" height="17px" viewBox="0 0 24 17" version="1.1" xmlns="http://www.w3.org/2000/svg" xmlns:xlink="http://www.w3.org/1999/xlink">
    <!-- Generator: Sketch 63.1 (92452) - https://sketch.com -->
    <title>Group 5</title>
    <desc>Created with Sketch.</desc>
    <g id="Page-1" stroke="none" stroke-width="1" fill="none" fill-rule="evenodd">
        <g id="Cart-Summary-(code-applied)" transform="translate(-964.000000, -281.000000)" fill="#011E41" fill-rule="nonzero" stroke="#011E41" stroke-width="0.3">
            <g id="Group-5" transform="translate(964.377081, 281.643205)">
                <path d="M13.6601094,6.75390192 C14.4461251,5.94336649 14.4462511,4.63129168 13.6601094,3.82062633 C12.8741356,3.01004759 11.6018207,3.00991767 10.8157209,3.82062633 C10.0297052,4.63116176 10.0295792,5.94327987 10.8157209,6.75390192 C11.6016947,7.56448066 12.8740097,7.56465389 13.6601094,6.75390192 Z M12.2379152,4.59894129 C12.6067971,4.59894129 12.9053797,4.90681137 12.9053797,5.28730743 C12.9053797,5.89520901 12.1873955,6.2086657 11.7659362,5.77399247 C11.3492223,5.34425625 11.6415477,4.59894129 12.2379152,4.59894129 Z" id="Shape" transform="translate(12.237915, 5.287272) rotate(-270.000000) translate(-12.237915, -5.287272) "></path>
                <path d="M6.65485601,8.62792051 C5.54333895,8.62792051 4.64351743,9.555515 4.64351743,10.7020701 C4.64351743,12.5497237 6.82086126,13.4641095 8.07700824,12.1687079 C9.35037307,10.855637 8.42800037,8.62792051 6.65485601,8.62792051 Z M7.12679302,11.1887552 C6.86655155,11.4571725 6.44311848,11.4571292 6.18283501,11.1887552 C5.92200562,10.9197748 5.92196362,10.4844087 6.18283501,10.2152985 C6.44366441,9.94631815 6.86587963,9.94623154 7.12679302,10.2152985 C7.38766441,10.4843654 7.38766441,10.9197315 7.12679302,11.1887552 Z" id="Shape" transform="translate(6.656256, 10.701627) rotate(-270.000000) translate(-6.656256, -10.701627) "></path>
                <path d="M12.5494314,4.8563216 C12.2870482,4.58569561 11.8615993,4.58569561 11.5992161,4.8563216 L6.40711114,10.2107232 C5.98254421,10.6485145 6.2890639,11.3935696 6.88219776,11.3935696 C7.05416626,11.3935696 7.22609277,11.325924 7.35732637,11.1905893 L12.5494314,5.83618774 C12.8118985,5.56564837 12.8118985,5.12690428 12.5494314,4.8563216 Z" id="Path" transform="translate(9.477914, 8.023461) rotate(-270.000000) translate(-9.477914, -8.023461) "></path>
                <path d="M18.0215013,1.14034764 L13.2380052,-2.45990039 C12.2822887,-3.1791878 10.9973753,-3.18009724 10.0406509,-2.46223898 L5.24039895,1.13991457 C4.46370604,1.72274134 4,2.66207205 4,3.65267835 L4,15.6523358 C4,17.491328 5.45079265,18.9874579 7.23405774,18.9874579 L16.024315,18.9874579 C17.807622,18.9874579 19.2584147,17.491328 19.2584147,15.6523358 L19.2584147,3.65051299 C19.2584147,2.66168228 18.7960105,1.72330433 18.0215013,1.14034764 Z M17.9146247,15.6523358 C17.9146247,16.7271744 17.0666667,17.6016311 16.024357,17.6016311 L7.23409974,17.6016311 C6.19183202,17.6016311 5.34387402,16.7271744 5.34387402,15.6523358 L5.34387402,3.65267835 C5.34387402,3.10384764 5.6007979,2.58338307 6.03111811,2.26048543 L10.8314121,-1.3416248 C11.3101102,-1.70085709 11.9589291,-1.70692008 12.4458583,-1.34045551 L17.2292703,2.25974921 C17.6584567,2.58273346 17.9146247,3.10267835 17.9146247,3.65051299 L17.9146247,15.6523358 Z" id="Shape" transform="translate(11.629207, 7.993729) rotate(-270.000000) translate(-11.629207, -7.993729) "></path>
                <ellipse id="Oval" transform="translate(18.651356, 8.023818) rotate(-270.000000) translate(-18.651356, -8.023818) " cx="18.6513564" cy="8.02381818" rx="1" ry="1"></ellipse>
            </g>
        </g>
    </g>
</svg>