<?xml version="1.0" encoding="UTF-8"?>
<svg width="16px" height="16px" viewBox="0 0 16 16" version="1.1" xmlns="http://www.w3.org/2000/svg" xmlns:xlink="http://www.w3.org/1999/xlink">
    <!-- Generator: sketchtool 53.2 (72643) - https://sketchapp.com -->
    <title>C0A09646-7EC0-4901-9395-A7ED699DB4C5</title>
    <desc>Created with sketchtool.</desc>
    <g id="Elements" stroke="none" stroke-width="1" fill="none" fill-rule="evenodd">
        <g id="Icons" transform="translate(-602.000000, -376.000000)" fill="#000000">
            <g id="ICO-/-Download" style="mix-blend-mode: luminosity;" transform="translate(602.000000, 376.000000)">
                <g id="Group-9" transform="translate(1.000000, 0.000000)">
                    <path d="M12.0563468,10 L12.0563468,13.1490849 L1.94365323,13.1490849 L1.94365323,10 L0,10 L0,14.0747724 C0,14.5856709 0.434497741,15 0.973274941,15 L13.0267251,15 C13.5650195,15 14,14.5861308 14,14.0747724 L14,10 L12.0563468,10 Z" id="Path"></path>
                    <path d="M6.83080315,8.87291682 L4.17020766,5.51896775 C4.17020766,5.51896775 3.76539464,5.1202499 4.2043652,5.1202499 C4.64333576,5.1202499 5.7036043,5.1202499 5.7036043,5.1202499 C5.7036043,5.1202499 5.7036043,4.85203028 5.7036043,4.43838458 C5.7036043,3.25908505 5.7036043,1.11284656 5.7036043,0.23788239 C5.7036043,0.23788239 5.64405939,0 5.98748116,0 C6.33367245,0 7.84999031,0 8.09786328,0 C8.34527465,0 8.33973559,0.200322012 8.33973559,0.200322012 C8.33973559,1.0488013 8.33973559,3.26919746 8.33973559,4.40997353 C8.33973559,4.77979878 8.33973559,5.01960735 8.33973559,5.01960735 C8.33973559,5.01960735 9.18998141,5.01960735 9.72357759,5.01960735 C10.2562506,5.01960735 9.85513028,5.43710539 9.85513028,5.43710539 C9.85513028,5.43710539 7.59150081,8.57195226 7.27577435,8.90084633 C7.04867287,9.13921027 6.83080315,8.87291682 6.83080315,8.87291682 Z" id="Path"></path>
                </g>
            </g>
        </g>
    </g>
</svg>