<?xml version="1.0" encoding="UTF-8"?>
<svg width="16px" height="15px" viewBox="0 0 16 15" version="1.1" xmlns="http://www.w3.org/2000/svg" xmlns:xlink="http://www.w3.org/1999/xlink">
    <!-- Generator: Sketch 63.1 (92452) - https://sketch.com -->
    <title></title>
    <desc>Created with Sketch.</desc>
    <g id="Mobile" stroke="none" stroke-width="1" fill="none" fill-rule="evenodd">
        <g id="My-Account---Address-Listing---icon-popup" transform="translate(-205.000000, -849.000000)" fill="#011E41" fill-rule="nonzero">
            <g id="Group-7" transform="translate(190.000000, 832.000000)">
                <g id="Group-6" transform="translate(15.000000, 12.000000)">
                    <path d="M5.88279907,17.1250021 L8.3437307,16.8515652 L15.5351198,9.66017613 C15.8450148,9.35028118 15.9999624,8.97202659 15.9999624,8.52541321 C15.9999624,8.07879983 15.8450148,7.70054525 15.5351198,7.39065029 L14.3593414,6.21487185 C14.0494464,5.90497689 13.6711918,5.75002921 13.2245784,5.75002921 C12.7779651,5.75002921 12.3997105,5.90497689 12.0898155,6.21487185 L4.89842642,13.406261 L4.62498957,15.8671926 C4.58853146,16.2317749 4.6979062,16.5416703 4.95311379,16.7968779 C5.20832137,17.0520855 5.51821675,17.1614602 5.88279907,17.1250021 Z M13.7577803,9.57814508 L12.1718466,7.99221136 L13.0195008,7.14455713 C13.0741882,7.08986976 13.1425474,7.06252608 13.2245784,7.06252608 C13.3066095,7.06252608 13.3749687,7.08986976 13.4296561,7.14455713 L14.6054345,8.32033558 C14.6601219,8.37502295 14.6874656,8.44338216 14.6874656,8.52541321 C14.6874656,8.60744427 14.6601219,8.67580348 14.6054345,8.73049085 L13.7577803,9.57814508 Z M11.1874739,19.7499958 C11.5520562,19.7499958 11.8619516,19.6223918 12.1171592,19.3671842 C12.3723668,19.1119767 12.4999708,18.8020813 12.4999708,18.437499 L12.4999708,14.4726647 C12.4999708,14.3632899 12.4543978,14.2903733 12.3632524,14.2539152 C12.2721069,14.2174571 12.1900758,14.2356859 12.1171592,14.3086026 L11.2421613,15.1836005 C11.2057032,15.2200586 11.1874739,15.2656315 11.1874739,15.3203189 L11.1874739,18.437499 L1.56249687,18.437499 L1.56249687,8.8125219 L8.17966859,8.8125219 C8.23435596,8.8125219 8.27992891,8.79429264 8.31638702,8.75783454 L9.19138493,7.88283662 C9.26430156,7.80991999 9.28253041,7.72788893 9.2460723,7.63674346 C9.20961419,7.54559798 9.14581198,7.50002503 9.05466651,7.50002503 L1.56249687,7.50002503 C1.19791455,7.50002503 0.888019173,7.62762904 0.632811587,7.88283662 C0.377604002,8.13804421 0.25,8.44793958 0.25,8.8125219 L0.25,18.437499 C0.25,18.8020813 0.377604002,19.1119767 0.632811587,19.3671842 C0.888019173,19.6223918 1.19791455,19.7499958 1.56249687,19.7499958 L11.1874739,19.7499958 Z M5.96483012,15.7851615 L6.15623592,14.007822 L11.2421613,8.92189664 L12.828095,10.5078304 L7.74216964,15.5937557 L5.96483012,15.7851615 Z" id=""></path>
                </g>
            </g>
        </g>
    </g>
</svg>