<?xml version="1.0" encoding="UTF-8"?>
<svg width="26px" height="26px" viewBox="0 0 26 26" version="1.1" xmlns="http://www.w3.org/2000/svg" xmlns:xlink="http://www.w3.org/1999/xlink">
    <title>0E29A40B-7058-4DC6-B16F-AC6B798C3E56</title>
    <g id="Desktop" stroke="none" stroke-width="1" fill="none" fill-rule="evenodd">
        <g id="PDPs---Sold-out" transform="translate(-1105.000000, -772.000000)" fill-rule="nonzero" stroke="#011E41">
            <g id="Where-to-buy" transform="translate(874.000000, 773.000000)">
                <g id="edit" transform="translate(232.000000, 0.000000)">
                    <path d="M22.9234703,5.23946389 C22.0535853,4.39549883 20.7239007,4.19294725 19.630634,4.7380304 L19.630634,2.75229358 C19.6288664,1.23294154 18.3636995,0.00172018349 16.8024581,0 L2.82817589,0 C1.26693444,0.00172018349 0.00176760993,1.23294154 0,2.75229358 L0,21.2477064 C0.00176760993,22.7670585 1.26693444,23.9982798 2.82817589,24 L16.8024581,24 C18.3636995,23.9982798 19.6288664,22.7670585 19.630634,21.2477064 L19.630634,12.8188073 L23.1715985,9.3728498 C24.2761338,8.29795013 24.2761338,6.55540426 23.1715985,5.48050459 L22.9234703,5.23946389 Z M10.463146,15.5846474 L12.5235163,17.6082282 L9.71920319,18.3322104 L10.463146,15.5846474 Z M13.6150155,17.1160407 L10.9671358,14.5155533 L18.6098392,7.09919725 L21.2590446,9.67710721 L13.6150155,17.1160407 Z M18.4993636,21.2477064 C18.4982588,22.1594037 17.7392914,22.8980075 16.8024581,22.8990826 L2.82817589,22.8990826 C1.89134262,22.8980075 1.1323751,22.1594037 1.13127035,21.2477064 L1.13127035,2.75229358 C1.1323751,1.84059633 1.89134262,1.10199253 2.82817589,1.10091743 L16.8024581,1.10091743 C17.7392914,1.10199253 18.4984798,1.84059633 18.4993636,2.75229358 L18.4993636,5.65123277 L9.7691382,14.1231364 C9.69799187,14.1921588 9.64695212,14.278383 9.62154271,14.3727781 L8.37758725,18.9667431 C8.32632657,19.1561783 8.38244815,19.3578699 8.52496175,19.4965596 C8.66747528,19.6350344 8.87472758,19.6892202 9.06960654,19.6389048 L13.7581919,18.4283257 C13.8545266,18.403598 13.9424652,18.3543578 14.0131696,18.2855505 L18.4993636,13.9197248 L18.4993636,21.2477064 Z M22.3715341,8.59446672 L22.0588881,8.89872418 L19.4107875,6.32167431 L19.7260849,6.01569666 C20.3896015,5.37406822 21.461215,5.37514338 22.1236268,6.01784692 L22.3715341,6.25910262 C23.0332831,6.9043865 23.0330621,7.9491829 22.3715341,8.59446672 L22.3715341,8.59446672 Z" id="Shape" stroke-width="0.2" fill="#011E41"></path>
                    <line x1="4.27986624" y1="6.72913506" x2="14.0334216" y2="6.72913506" id="Path-4" stroke-linecap="round"></line>
                    <line x1="4.27986624" y1="10.7291351" x2="10.0334216" y2="10.7291351" id="Path-4-Copy" fill="#011E41" stroke-linecap="round"></line>
                </g>
            </g>
        </g>
    </g>
</svg>