<?xml version="1.0" encoding="UTF-8"?>
<svg width="24px" height="23px" viewBox="0 0 24 23" version="1.1" xmlns="http://www.w3.org/2000/svg" xmlns:xlink="http://www.w3.org/1999/xlink">
    <!-- Generator: sketchtool 53.2 (72643) - https://sketchapp.com -->
    <title>05928F7B-2420-408D-97D0-DD740561FD0D</title>
    <desc>Created with sketchtool.</desc>
    <g id="Elements" stroke="none" stroke-width="1" fill="none" fill-rule="evenodd">
        <g id="Icons" transform="translate(-610.000000, -304.000000)" fill="#fff" fill-rule="nonzero">
            <g id="gift" transform="translate(610.000000, 304.000000)">
                <path d="M20.75,7.0484134 L16.795,7.0484134 C17.07875,6.85182286 17.3225,6.65650065 17.4925,6.48147165 C18.5,5.45285922 18.5,3.77866883 17.4925,2.7500564 C16.51375,1.75061546 14.80625,1.74934714 13.82625,2.7500564 C13.285,3.30177823 11.84625,5.54798367 12.045,7.0484134 L11.955,7.0484134 C12.1525,5.54798367 10.715,3.30177823 10.17375,2.7500564 C9.19375,1.74934714 7.48625,1.75061546 6.5075,2.7500564 C5.5,3.77866883 5.5,5.45285922 6.50625,6.48147165 C6.6775,6.65650065 6.92125,6.85182286 7.205,7.0484134 L3.25,7.0484134 C2.56125,7.0484134 2,7.61789179 2,8.31673945 L2,11.4875546 C2,11.8376126 2.28,12.1217176 2.625,12.1217176 L3.25,12.1217176 L3.25,19.7316739 C3.25,20.4305216 3.81125,21 4.5,21 L19.5,21 C20.18875,21 20.75,20.4305216 20.75,19.7316739 L20.75,12.1217176 L21.375,12.1217176 C21.72,12.1217176 22,11.8376126 22,11.4875546 L22,8.31673945 C22,7.61789179 21.43875,7.0484134 20.75,7.0484134 Z M7.39375,3.64422626 C7.6475,3.38548775 7.98375,3.24343523 8.34125,3.24343523 C8.6975,3.24343523 9.03375,3.38548775 9.2875,3.64422626 C10.13,4.50415133 10.9675,6.70089206 10.67625,7.00655864 C10.67625,7.00655864 10.62375,7.0484134 10.445,7.0484134 C9.58125,7.0484134 7.9325,6.13775529 7.39375,5.58730178 C6.87,5.05206819 6.87,4.17945986 7.39375,3.64422626 Z M11.375,19.7316739 L4.5,19.7316739 L4.5,12.1217176 L11.375,12.1217176 L11.375,19.7316739 Z M11.375,10.8533916 L3.25,10.8533916 L3.25,8.31673945 L10.445,8.31673945 L11.375,8.31673945 L11.375,10.8533916 Z M14.7125,3.64422626 C15.22,3.12801756 16.1,3.12928589 16.60625,3.64422626 C17.13,4.17945986 17.13,5.05206819 16.60625,5.58730178 C16.0675,6.13775529 14.41875,7.0484134 13.555,7.0484134 C13.37625,7.0484134 13.32375,7.00782696 13.3225,7.00655864 C13.0325,6.70089206 13.87,4.50415133 14.7125,3.64422626 Z M19.5,19.7316739 L12.625,19.7316739 L12.625,12.1217176 L19.5,12.1217176 L19.5,19.7316739 Z M20.75,10.8533916 L12.625,10.8533916 L12.625,8.31673945 L13.555,8.31673945 L20.75,8.31673945 L20.75,10.8533916 Z" id="Shape"></path>
            </g>
        </g>
    </g>
</svg>