<svg width="16" height="16" viewBox="0 0 16 16" fill="none" xmlns="http://www.w3.org/2000/svg">
<path fill-rule="evenodd" clip-rule="evenodd" d="M15 4.03873H11.836C12.063 3.88146 12.258 3.7252 12.394 3.58518C13.2 2.76229 13.2 1.42294 12.394 0.600045C11.611 -0.199508 10.245 -0.200522 9.461 0.600045C9.028 1.04142 7.877 2.83839 8.036 4.03873H7.964C8.122 2.83839 6.972 1.04142 6.539 0.600045C5.755 -0.200522 4.389 -0.199508 3.606 0.600045C2.8 1.42294 2.8 2.76229 3.605 3.58518C3.742 3.7252 3.937 3.88146 4.164 4.03873H1C0.449 4.03873 0 4.49431 0 5.05339V7.59004C0 7.87009 0.224 8.09737 0.5 8.09737H1V14.1853C1 14.7444 1.449 15.2 2 15.2H14C14.551 15.2 15 14.7444 15 14.1853V8.09737H15.5C15.776 8.09737 16 7.87009 16 7.59004V5.05339C16 4.49431 15.551 4.03873 15 4.03873ZM4.315 1.31538C4.518 1.10839 4.787 0.994748 5.073 0.994748C5.358 0.994748 5.627 1.10839 5.83 1.31538C6.504 2.00332 7.174 3.76071 6.941 4.00525C6.941 4.00525 6.899 4.03873 6.756 4.03873C6.065 4.03873 4.746 3.3102 4.315 2.86984C3.896 2.44165 3.896 1.74357 4.315 1.31538ZM2 14.1853H7.5V8.09737H2V14.1853ZM7.5 7.08271H1V5.05339H6.756H7.5V7.08271ZM11.685 1.31538C11.28 0.903429 10.576 0.902414 10.17 1.31538C9.496 2.00332 8.826 3.76071 9.058 4.00525C9.059 4.00626 9.101 4.03873 9.244 4.03873C9.935 4.03873 11.254 3.3102 11.685 2.86984C12.104 2.44165 12.104 1.74357 11.685 1.31538ZM14 14.1853H8.5V8.09737H14V14.1853ZM8.5 7.08271H15V5.05339H9.244H8.5V7.08271Z" fill="#011E41"/>
</svg>
