<?xml version="1.0" encoding="UTF-8"?>
<svg width="17px" height="17px" viewBox="0 0 17 17" version="1.1" xmlns="http://www.w3.org/2000/svg" xmlns:xlink="http://www.w3.org/1999/xlink">
    <!-- Generator: sketchtool 63.1 (101010) - https://sketch.com -->
    <title>49CA4937-DF81-46E4-8590-756CAEBB8490</title>
    <desc>Created with sketchtool.</desc>
    <g id="Login-/-Sign-up" stroke="none" stroke-width="1" fill="none" fill-rule="evenodd">
        <g id="Login" transform="translate(-621.000000, -482.000000)" fill="#FFFFFF" fill-rule="nonzero">
            <g id="BTN-/-Mob-/-Primary-Blue-" transform="translate(530.000000, 468.000000)">
                <g id="google-icon">
                    <path d="M93.4732821,28.5495722 C90.1528764,25.3052662 90.1528764,19.6276934 93.6115754,16.3835359 C96.1019176,13.9502692 99.6989098,13.4096258 102.881022,14.6261849 L104.126117,15.3021005 L105.509658,16.2484121 L103.296054,18.4112828 L102.465991,17.8706394 C100.529125,16.6540803 97.7620445,16.9243278 95.9636244,18.6816788 C93.8883138,20.7094258 93.7500206,24.3592515 95.9636244,26.5221222 C98.0389349,28.6849929 101.774372,28.6849929 103.711238,26.5221222 C104.264563,25.9814788 104.81804,25.1702909 104.956333,24.3592515 L104.956333,24.0888556 L99.9758002,24.0888556 L99.9758002,21.3853414 L107.861707,21.3853414 L108,22.0612571 L108,23.9537318 C107.861707,25.7110828 107.169937,27.4684339 105.924689,28.6849929 C102.604436,31.7938783 96.7936878,31.7938783 93.4732821,28.5495722 Z"></path>
                </g>
            </g>
        </g>
    </g>
</svg>