<?xml version="1.0" encoding="UTF-8"?>
<svg width="17px" height="17px" viewBox="0 0 17 17" version="1.1" xmlns="http://www.w3.org/2000/svg" xmlns:xlink="http://www.w3.org/1999/xlink">
    <!-- Generator: Sketch 63.1 (92452) - https://sketch.com -->
    <title>google icon</title>
    <desc>Created with Sketch.</desc>
    <g id="Desktop" stroke="none" stroke-width="1" fill="none" fill-rule="evenodd">
        <g id="01_[Desktop]_Homepage-Login" transform="translate(-1065.000000, -198.000000)" fill="#DD4B39" fill-rule="nonzero">
            <g id="Group-38" transform="translate(1047.000000, 70.000000)">
                <path d="M20.4732821,142.549572 C17.1528764,139.305266 17.1528764,133.627693 20.6115754,130.383536 C23.1019176,127.950269 26.6989098,127.409626 29.8810222,128.626185 L31.1261174,129.302101 L32.5096577,130.248412 L30.296054,132.411283 L29.4659905,131.870639 C27.5291252,130.65408 24.7620445,130.924328 22.9636244,132.681679 C20.8883138,134.709426 20.7500206,138.359252 22.9636244,140.522122 C25.0389349,142.684993 28.7743723,142.684993 30.7112376,140.522122 C31.2645626,139.981479 31.8180395,139.170291 31.9563328,138.359252 L31.9563328,138.088856 L26.9758002,138.088856 L26.9758002,135.385341 L34.8617068,135.385341 L35,136.061257 L35,137.953732 C34.8617068,139.711083 34.1699366,141.468434 32.9246895,142.684993 C29.6044357,145.793878 23.7936878,145.793878 20.4732821,142.549572 Z" id="google-icon"></path>
            </g>
        </g>
    </g>
</svg>