<?xml version="1.0" encoding="UTF-8"?>
<svg width="26px" height="24px" viewBox="0 0 26 24" version="1.1" xmlns="http://www.w3.org/2000/svg" xmlns:xlink="http://www.w3.org/1999/xlink">
    <title>Heart</title>
    <g id="Desktop" stroke="none" stroke-width="1" fill="none" fill-rule="evenodd">
        <g id="PLPs---JP-ver" transform="translate(-153.000000, -1514.000000)">
            <g id="Heart" transform="translate(154.000000, 1514.000000)">
                <rect id="Rectangle" x="0" y="0" width="24" height="24"></rect>
                <path d="M17.7500156,1 C21.1963125,1 24,4.16846425 24,8.06250559 C24,9.83592495 23.4111562,11.5288132 22.3393594,12.8413113 C22.3163906,12.8847644 22.286625,12.9248424 22.2504844,12.9604674 C22.1640937,13.0561391 22.0869375,13.1308578 22.0087969,13.204592 L22.0087969,13.204592 L21.9101719,13.3003107 L12.3535312,22.8535158 C12.2558438,22.9511563 12.1279219,23 12,23 C11.8720781,23 11.744625,22.9511563 11.6469844,22.8539846 L11.6469844,22.8539846 L2.3979375,13.6240289 C2.3671875,13.593279 2.34079687,13.5591072 2.31932813,13.5219822 C0.84328125,12.1669685 0,10.1870182 0,8.06250559 C0,4.16846425 2.80373438,1 6.24998437,1 C8.91210937,1 11.1108281,3.47265274 12,4.63965108 C12.8891719,3.47265274 15.0878906,1 17.7500156,1 Z" id="Shape" stroke="#011E41" stroke-width="0.25" fill="#011E41" fill-rule="nonzero"></path>
            </g>
        </g>
    </g>
</svg>