<?xml version="1.0" encoding="UTF-8"?>
<svg width="26px" height="24px" viewBox="0 0 26 24" version="1.1" xmlns="http://www.w3.org/2000/svg" xmlns:xlink="http://www.w3.org/1999/xlink">
    <title>Heart</title>
    <g id="Symbols" stroke="none" stroke-width="1" fill="none" fill-rule="evenodd">
        <g id="Navigation----Loged-in" transform="translate(-1102.000000, -30.000000)">
            <g id="Heart" transform="translate(1103.000000, 30.000000)">
                <g id="heart-(1)" transform="translate(0.000000, 1.000000)" fill="#011E41" fill-rule="nonzero" stroke="#011E41" stroke-width="0.25">
                    <path d="M17.7500156,0 C15.0878906,0 12.8891719,2.47265274 12,3.63965108 C11.1108281,2.47265274 8.91210937,0 6.24998437,0 C2.80373438,0 0,3.16846425 0,7.06250559 C0,9.1870182 0.84328125,11.1669685 2.31932813,12.5219822 C2.34079687,12.5591072 2.3671875,12.593279 2.3979375,12.6240289 L11.6469844,21.8539846 C11.744625,21.9511563 11.8720781,22 12,22 C12.1279219,22 12.2558438,21.9511563 12.3535312,21.8535158 L21.9101719,12.3003107 L22.0087969,12.204592 C22.0869375,12.1308578 22.1640937,12.0561391 22.2504844,11.9604674 C22.286625,11.9248424 22.3163906,11.8847644 22.3393594,11.8413113 C23.4111562,10.5288132 24,8.83592495 24,7.06250559 C24,3.16846425 21.1963125,0 17.7500156,0 Z M21.5073281,11.2788121 C21.4936406,11.2949371 21.4809375,11.3119996 21.4697344,11.3295777 C21.4228594,11.3832963 21.3715781,11.43064 21.3208125,11.4790149 L11.9995313,20.7934392 L3.21876563,12.0302642 C3.19045313,11.9745767 3.15089063,11.9238112 3.1025625,11.8813425 C1.76610938,10.7143442 0.999984375,8.95798728 0.999984375,7.06250559 C0.999984375,3.71971347 3.35498438,1.00002983 6.24998438,1.00002983 C9.1123125,1.00002983 11.5551563,4.73343078 11.5795781,4.77102447 C11.7641719,5.05616469 12.2358281,5.05616469 12.4204219,4.77102447 C12.4448438,4.73343078 14.8876875,1.00002983 17.7500156,1.00002983 C20.6450156,1.00002983 23.0000156,3.71976034 23.0000156,7.06250559 C23.0000156,8.63769086 22.4697188,10.1352512 21.5073281,11.2788121 Z" id="Shape"></path>
                </g>
                <g id="Rectangle">
                    <rect x="0" y="0" width="24" height="24"></rect>
                </g>
            </g>
        </g>
    </g>
</svg>