<?xml version="1.0" encoding="UTF-8"?>
<svg width="18px" height="18px" viewBox="0 0 18 18" version="1.1" xmlns="http://www.w3.org/2000/svg" xmlns:xlink="http://www.w3.org/1999/xlink">
    <!-- Generator: Sketch 48.2 (47327) - http://www.bohemiancoding.com/sketch -->
    <title>information (1) copy</title>
    <desc>Created with Sketch.</desc>
    <defs>
        <polygon id="path-1" points="0 0 18 0 18 18 0 18"></polygon>
    </defs>
    <g id="[ELT-63]---Desktop---hover" stroke="none" stroke-width="1" fill="none" fill-rule="evenodd" transform="translate(-1038.000000, -2194.000000)">
        <g id="information-(1)-copy" transform="translate(1038.000000, 2194.000000)">
            <mask id="mask-2" fill="white">
                <use xlink:href="#path-1"></use>
            </mask>
            <g id="Clip-2"></g>
            <path d="M9.87890625,13.3066406 C9.87890625,13.792043 9.48540234,14.1855469 9,14.1855469 C8.51459766,14.1855469 8.12109375,13.792043 8.12109375,13.3066406 C8.12109375,12.8212383 8.51459766,12.4277344 9,12.4277344 C9.48540234,12.4277344 9.87890625,12.8212383 9.87890625,13.3066406 Z M11.8125,7.33007812 C11.8125,8.63820703 10.9148203,9.74060156 9.703125,10.0535977 L9.703125,11.1972656 C9.703125,11.5856016 9.38833594,11.9003906 9,11.9003906 C8.61166406,11.9003906 8.296875,11.5856016 8.296875,11.1972656 L8.296875,9.43945312 C8.296875,9.05111719 8.61166406,8.73632812 9,8.73632812 C9.77540625,8.73632812 10.40625,8.10548437 10.40625,7.33007812 C10.40625,6.55467187 9.77540625,5.92382812 9,5.92382812 C8.22459375,5.92382812 7.59375,6.55467187 7.59375,7.33007812 C7.59375,7.71841406 7.27896094,8.03320312 6.890625,8.03320312 C6.50228906,8.03320312 6.1875,7.71841406 6.1875,7.33007812 C6.1875,5.77926562 7.4491875,4.51757812 9,4.51757812 C10.5508125,4.51757812 11.8125,5.77926562 11.8125,7.33007812 Z M9,16.59375 C4.80315234,16.59375 1.40625,13.1974102 1.40625,9 C1.40625,4.80315234 4.80258984,1.40625 9,1.40625 C13.1968477,1.40625 16.59375,4.80258984 16.59375,9 C16.59375,13.1968477 13.1974102,16.59375 9,16.59375 Z M9,0 C4.02595313,0 0,4.02528516 0,9 C0,13.9740469 4.02528516,18 9,18 C13.9740469,18 18,13.9747148 18,9 C18,4.02595313 13.9747148,0 9,0 Z" id="Fill-1" fill="#011e41" mask="url(#mask-2)"></path>
        </g>
    </g>
</svg>