<?xml version="1.0" encoding="UTF-8"?>
<svg width="50px" height="50px" viewBox="0 0 50 50" version="1.1" xmlns="http://www.w3.org/2000/svg" xmlns:xlink="http://www.w3.org/1999/xlink">
    <title>icon-calling</title>
    <g id="Page-1" stroke="none" stroke-width="1" fill="none" fill-rule="evenodd">
        <g id="Order-Confirmation---OTP-Call---2" transform="translate(-695.000000, -193.000000)" fill="#011E41" fill-rule="nonzero">
            <g id="icon-calling" transform="translate(695.000000, 193.000000)">
                <path d="M39.4995781,30.9605485 C38.4763713,29.8951477 37.2421941,29.3255274 35.9341772,29.3255274 C34.6367089,29.3255274 33.3919831,29.8845992 32.3265823,30.95 L28.9932489,34.2727848 C28.7189873,34.1251055 28.4447257,33.9879747 28.1810127,33.8508439 C27.8012658,33.6609705 27.442616,33.4816456 27.1367089,33.2917722 C24.014346,31.3086498 21.1767932,28.7242616 18.4552743,25.3803797 C17.1367089,23.7137131 16.2506329,22.3107595 15.607173,20.8867089 C16.4721519,20.0955696 17.2738397,19.2727848 18.0544304,18.4816456 C18.349789,18.1862869 18.6451477,17.8803797 18.9405063,17.5850211 C21.1556962,15.3698312 21.1556962,12.5006329 18.9405063,10.285443 L16.0607595,7.4056962 C15.7337553,7.07869198 15.3962025,6.74113924 15.0797468,6.4035865 C14.4468354,5.74957806 13.7822785,5.07447257 13.0966245,4.44156118 C12.0734177,3.42890295 10.849789,2.89092827 9.5628692,2.89092827 C8.27594937,2.89092827 7.03122363,3.42890295 5.97637131,4.44156118 C5.96582278,4.4521097 5.96582278,4.4521097 5.95527426,4.46265823 L2.36877637,8.08080169 C1.0185654,9.43101266 0.248523207,11.0765823 0.0797468354,12.985865 C-0.173417722,16.0660338 0.733755274,18.9352321 1.42995781,20.8128692 C3.13881857,25.4225738 5.69156118,29.6947257 9.49957806,34.2727848 C14.1198312,39.7896624 19.678903,44.1462025 26.0291139,47.2158228 C28.4552743,48.3656118 31.6936709,49.7263713 35.3118143,49.9584388 C35.5333333,49.9689873 35.7654008,49.9795359 35.9763713,49.9795359 C38.4130802,49.9795359 40.4594937,49.1040084 42.0628692,47.3635021 C42.0734177,47.3424051 42.0945148,47.3318565 42.1050633,47.3107595 C42.6535865,46.6462025 43.2864979,46.0449367 43.9510549,45.4014768 C44.4046414,44.9689873 44.8687764,44.5154008 45.3223629,44.0407173 C46.3666667,42.9542194 46.9151899,41.6883966 46.9151899,40.3909283 C46.9151899,39.0829114 46.3561181,37.8276371 45.2907173,36.7727848 L39.4995781,30.9605485 Z M43.2759494,42.0681435 C43.2654008,42.0681435 43.2654008,42.078692 43.2759494,42.0681435 C42.864557,42.5111814 42.442616,42.9120253 41.9890295,43.3550633 C41.3033755,44.0090717 40.607173,44.6947257 39.9531646,45.4647679 C38.8877637,46.6040084 37.6324895,47.1419831 35.9869198,47.1419831 C35.828692,47.1419831 35.6599156,47.1419831 35.5016878,47.1314346 C32.3687764,46.9310127 29.457384,45.707384 27.2738397,44.6630802 C21.3033755,41.7727848 16.0607595,37.6694093 11.7042194,32.4689873 C8.107173,28.1335443 5.7021097,24.1251055 4.1092827,19.821308 C3.12827004,17.1947257 2.76962025,15.1483122 2.9278481,13.2179325 C3.03333333,11.9837553 3.50801688,10.9605485 4.3835443,10.0850211 L7.98059072,6.48797468 C8.49746835,6.00274262 9.04599156,5.73902954 9.58396624,5.73902954 C10.2485232,5.73902954 10.7864979,6.13987342 11.1240506,6.47742616 C11.1345992,6.48797468 11.1451477,6.49852321 11.1556962,6.50907173 C11.7991561,7.11033755 12.4109705,7.73270042 13.0544304,8.39725738 C13.3814346,8.73481013 13.7189873,9.07236287 14.0565401,9.42046414 L16.9362869,12.300211 C18.0544304,13.4183544 18.0544304,14.4521097 16.9362869,15.5702532 C16.6303797,15.8761603 16.3350211,16.1820675 16.0291139,16.4774262 C15.143038,17.3845992 14.2991561,18.228481 13.3814346,19.0512658 C13.3603376,19.0723629 13.3392405,19.0829114 13.328692,19.1040084 C12.421519,20.0111814 12.5902954,20.8972574 12.7801688,21.4985232 C12.7907173,21.5301688 12.8012658,21.5618143 12.8118143,21.5934599 C13.5607595,23.4078059 14.6156118,25.1166667 16.2189873,27.1525316 L16.2295359,27.1630802 C19.1409283,30.7495781 22.2105485,33.5449367 25.5966245,35.6862869 C26.0291139,35.9605485 26.4721519,36.1820675 26.8940928,36.393038 C27.2738397,36.5829114 27.6324895,36.7622363 27.9383966,36.9521097 C27.9805907,36.9732068 28.0227848,37.0048523 28.0649789,37.0259494 C28.4236287,37.2052743 28.7611814,37.2896624 29.1092827,37.2896624 C29.9848101,37.2896624 30.5333333,36.7411392 30.7126582,36.5618143 L34.3202532,32.9542194 C34.678903,32.5955696 35.2485232,32.1630802 35.9130802,32.1630802 C36.5670886,32.1630802 37.1050633,32.5744726 37.4320675,32.9331224 C37.442616,32.9436709 37.442616,32.9436709 37.4531646,32.9542194 L43.2654008,38.7664557 C44.3518987,39.8424051 44.3518987,40.95 43.2759494,42.0681435 Z" id="Shape"></path>
                <path d="M27.0101266,11.8888186 C29.7738397,12.3529536 32.2843882,13.6609705 34.2886076,15.6651899 C36.292827,17.6694093 37.5902954,20.1799578 38.0649789,22.9436709 C38.1810127,23.6398734 38.7822785,24.1251055 39.4679325,24.1251055 C39.5523207,24.1251055 39.6261603,24.114557 39.7105485,24.1040084 C40.4911392,23.9774262 41.0080169,23.2390295 40.8814346,22.4584388 C40.3118143,19.114557 38.7295359,16.0660338 36.3139241,13.6504219 C33.8983122,11.2348101 30.849789,9.65253165 27.5059072,9.08291139 C26.7253165,8.95632911 25.9974684,9.47320675 25.8603376,10.2432489 C25.7232068,11.0132911 26.2295359,11.7622363 27.0101266,11.8888186 Z" id="Path"></path>
                <path d="M49.921519,22.0470464 C48.9827004,16.5407173 46.3877637,11.5301688 42.4004219,7.542827 C38.4130802,3.55548523 33.4025316,0.960548523 27.8962025,0.0217299578 C27.1261603,-0.115400844 26.3983122,0.412025316 26.2611814,1.18206751 C26.1345992,1.96265823 26.6514768,2.69050633 27.4320675,2.82763713 C32.3476793,3.66097046 36.8308017,5.99219409 40.3962025,9.54704641 C43.9616034,13.1124473 46.2822785,17.5955696 47.1156118,22.5111814 C47.2316456,23.207384 47.8329114,23.692616 48.5185654,23.692616 C48.6029536,23.692616 48.6767932,23.6820675 48.7611814,23.671519 C49.5312236,23.5554852 50.0586498,22.8170886 49.921519,22.0470464 Z" id="Path"></path>
            </g>
        </g>
    </g>
</svg>