<svg width="24" height="24" viewBox="0 0 24 24" fill="none" xmlns="http://www.w3.org/2000/svg">
<g clip-path="url(#clip0)">
<path d="M12 0.999985C5.373 0.999985 0 5.20799 0 10.399C0 13.755 2.246 16.7 5.625 18.362C3.947 24.111 2.961 24.485 9.869 19.649C10.561 19.746 11.273 19.797 12 19.797C18.627 19.797 24 15.589 24 10.398C24 5.20798 18.627 0.999985 12 0.999985Z" fill="#111111"/>
<path d="M10.3843 8.27003C10.0673 7.37703 8.85526 7.37603 8.53926 8.26903C7.55526 11.321 6.23726 13.204 7.04726 13.575C8.12526 14.064 8.14826 12.964 8.40626 12.475H10.5173C10.7743 12.962 10.7993 14.063 11.8763 13.575C12.6893 13.204 11.3873 11.38 10.3843 8.27003ZM8.77026 11.257L9.46226 9.30603L10.1533 11.257H8.77026Z" fill="#FFEB3B"/>
<path d="M5.36509 13.68C4.16709 13.68 4.87509 12.023 4.67309 8.938C4.24409 8.864 2.91309 9.235 2.91309 8.265C2.91309 7.894 3.21809 7.592 3.59209 7.592C6.11009 7.772 7.81609 7.122 7.81609 8.265C7.81609 9.252 6.54109 8.855 6.05609 8.938C5.85609 12.013 6.56109 13.68 5.36509 13.68Z" fill="#FFEB3B"/>
<path d="M13.1542 13.579C11.9952 13.579 12.7002 12.014 12.4912 8.27797C12.4912 7.36797 13.9042 7.36897 13.9042 8.27797V12.318C14.5732 12.407 16.0392 11.988 16.0392 12.948C16.0382 13.955 14.4632 13.451 13.1542 13.579Z" fill="#FFEB3B"/>
<path d="M19.5562 13.38L17.9322 11.243L17.6922 11.482V12.982C17.6922 13.362 17.3822 13.67 16.9992 13.67C15.7962 13.67 16.5172 11.938 16.3072 8.278C16.3072 7.899 16.6172 7.59 16.9992 7.59C18.0442 7.59 17.5932 9.068 17.6912 9.75599C19.6512 7.883 19.6042 7.684 20.0072 7.684C20.5632 7.684 20.9042 8.375 20.5342 8.742L18.9562 10.309L20.6602 12.552C21.2162 13.277 20.1052 14.108 19.5562 13.38Z" fill="#FFEB3B"/>
</g>
<defs>
<clipPath id="clip0">
<rect width="24" height="24" fill="white"/>
</clipPath>
</defs>
</svg>
