<svg width="24" height="24" viewBox="0 0 24 24" fill="none" xmlns="http://www.w3.org/2000/svg">
<path fill-rule="evenodd" clip-rule="evenodd" d="M24 24H0V0H24V24ZM14.2586 1.52742C13.5785 1.39192 12.7623 1.28977 11.9959 1.28977C6.28722 1.28977 1.6748 5.86196 1.3026 11.4359L3.57226 11.439C8.99988 11.439 14.2586 6.96469 14.2586 1.52742ZM14.2577 22.4732C14.2577 17.0413 9.00075 12.5711 3.57412 12.5711H1.30117C1.517 18.1206 6.28514 22.707 11.9959 22.7146C12.7218 22.7146 13.5785 22.6119 14.2577 22.4732ZM15.3827 1.83376C19.6247 3.22359 22.69 7.24507 22.7017 11.9961C22.7134 16.6697 19.7095 20.6816 15.3827 22.1634V1.83376Z" fill="#011E41"/>
</svg>
