<?xml version="1.0" encoding="UTF-8"?>
<svg width="24px" height="24px" viewBox="0 0 24 24" version="1.1" xmlns="http://www.w3.org/2000/svg" xmlns:xlink="http://www.w3.org/1999/xlink">
    <title>75A20052-063A-459D-8445-8A468149C9AD</title>
    <g id="Desktop" stroke="none" stroke-width="1" fill="none" fill-rule="evenodd">
        <g id="03_[Desktop]_Product-Page" transform="translate(-997.000000, -799.000000)" fill="#011E41" fill-rule="nonzero">
            <g id="Group-41" transform="translate(830.000000, 613.000000)">
                <g id="Group-9" transform="translate(167.000000, 186.000000)">
                    <g id="6-activities">
                        <path d="M24,1.8 C24,1.5 23.7176471,1.23333333 23.4,1.23333333 L17.4,1.23333333 C17.0823529,1.23333333 16.8,1.5 16.8,1.8 C16.8,2.1 17.0823529,2.36666667 17.4,2.36666667 L22.8,2.36666667 L22.8,22.7666667 L1.2,22.7666667 L1.2,2.36666667 L6.56470588,2.36666667 C6.88235294,2.36666667 7.16470588,2.1 7.16470588,1.8 C7.16470588,1.5 6.88235294,1.23333333 6.56470588,1.23333333 L0.6,1.23333333 C0.423529412,1.23333333 0.282352941,1.3 0.176470588,1.4 C0.0705882353,1.5 0,1.63333333 0,1.8 L0,23.3333333 C0,23.6333333 0.282352941,23.9 0.6,23.9 L23.4,23.9 C23.5764706,23.9 23.7176471,23.8333333 23.8235294,23.7333333 C23.9294118,23.6333333 24,23.4666667 24,23.3333333 L24,1.8 Z" id="Path"></path>
                        <path d="M8.78823529,4.93333333 L11.4705882,9.96666667 C11.5764706,10.1666667 11.7882353,10.2666667 12,10.2666667 L12,10.2666667 C12.2117647,10.2666667 12.4235294,10.1333333 12.5294118,9.96666667 L15.2117647,4.9 C15.4235294,4.43333333 15.5647059,3.96666667 15.5647059,3.46666667 C15.5647059,1.6 13.9764706,0.1 12,0.1 C10.0235294,0.1 8.43529412,1.6 8.43529412,3.46666667 C8.43529412,3.96666667 8.54117647,4.46666667 8.78823529,4.93333333 L8.78823529,4.93333333 Z M12,1.23333333 C13.3058824,1.23333333 14.3647059,2.23333333 14.3647059,3.46666667 C14.3647059,3.8 14.2941176,4.13333333 14.1529412,4.4 L12,8.43333333 L9.88235294,4.4 C9.74117647,4.1 9.67058824,3.76666667 9.67058824,3.43333333 C9.63529412,2.23333333 10.6941176,1.23333333 12,1.23333333 Z" id="Shape"></path>
                        <ellipse id="Oval" cx="12" cy="3.53333333" rx="1.2" ry="1.13333333"></ellipse>
                        <path d="M16.5176471,17.6 C16.5882353,17.6 16.6941176,17.6 16.7647059,17.5666667 C17.1882353,17.4 17.5764706,17.1666667 17.9294118,16.9 C18.0705882,16.8 18.1764706,16.6333333 18.1764706,16.4666667 C18.1764706,16.3333333 18.1411765,16.2333333 18.0352941,16.1333333 C17.8235294,15.9 17.4352941,15.8333333 17.1882353,16.0333333 C16.9058824,16.2333333 16.6235294,16.4 16.3058824,16.5333333 C16.1647059,16.6 16.0588235,16.7 15.9882353,16.8333333 C15.9176471,16.9666667 15.9176471,17.1333333 15.9882353,17.2666667 C16.0588235,17.4666667 16.2705882,17.6 16.5176471,17.6 Z" id="Path"></path>
                        <path d="M18.7764706,15.2 C18.8470588,15.2333333 18.9529412,15.2666667 19.0588235,15.2666667 C19.2705882,15.2666667 19.4823529,15.1666667 19.5882353,14.9666667 C19.9411765,14.3666667 20.0823529,13.9 20.1176471,13.8 C20.1176471,13.7666667 20.1529412,13.7 20.1529412,13.6666667 C20.1529412,13.4 19.9764706,13.2 19.7294118,13.1333333 C19.4117647,13.0666667 19.0941176,13.2333333 18.9882353,13.5333333 L18.9882353,13.5333333 C18.9882353,13.5333333 18.9529412,13.6333333 18.8823529,13.7666667 C18.8117647,13.9333333 18.7058824,14.1666667 18.5647059,14.4333333 C18.4941176,14.5666667 18.4588235,14.7333333 18.5294118,14.8666667 C18.5294118,15 18.6352941,15.1333333 18.7764706,15.2 Z" id="Path"></path>
                        <path d="M6.70588235,14 C6.63529412,14.1333333 6.63529412,14.3 6.70588235,14.4333333 C6.81176471,14.6333333 7.02352941,14.7666667 7.27058824,14.7666667 C7.34117647,14.7666667 7.44705882,14.7666667 7.51764706,14.7333333 C7.83529412,14.6 8.15294118,14.5333333 8.50588235,14.5 C8.82352941,14.4666667 9.03529412,14.2333333 9.03529412,13.9333333 C9.03529412,13.9 9.03529412,13.9 9.03529412,13.8666667 C9,13.5666667 8.71764706,13.3333333 8.36470588,13.3666667 C7.90588235,13.4 7.44705882,13.5333333 7.02352941,13.7 C6.88235294,13.7333333 6.77647059,13.8333333 6.70588235,14 Z" id="Path"></path>
                        <path d="M6.07058824,15.6666667 C6.07058824,15.4666667 5.96470588,15.3 5.82352941,15.2 C5.54117647,15.0333333 5.15294118,15.1 4.97647059,15.3333333 C4.83529412,15.5333333 4.69411765,15.7666667 4.55294118,16.0333333 C3.95294118,16.1 3.52941176,16.5666667 3.52941176,17.1666667 C3.52941176,17.8 4.05882353,18.3 4.72941176,18.3 C5.4,18.3 5.92941176,17.8 5.92941176,17.1666667 C5.92941176,16.9 5.82352941,16.6666667 5.68235294,16.4666667 C5.78823529,16.3 5.89411765,16.1333333 6,15.9666667 C6.03529412,15.8666667 6.07058824,15.7666667 6.07058824,15.6666667 Z" id="Path"></path>
                        <path d="M13.4470588,16.4666667 C13.2,16.2666667 12.8117647,16.3333333 12.6,16.5666667 C12.4941176,16.7 12.4588235,16.8333333 12.4941176,17 C12.5294118,17.1666667 12.6,17.3 12.7058824,17.3666667 C13.0941176,17.6666667 13.5529412,17.8333333 14.0823529,17.9 C14.1176471,17.9 14.1529412,17.9 14.1882353,17.9 C14.4705882,17.9 14.7529412,17.7 14.7882353,17.4333333 C14.7882353,17.4 14.7882353,17.3666667 14.7882353,17.3333333 C14.7882353,17.0666667 14.5764706,16.8333333 14.2941176,16.7666667 C13.9411765,16.7333333 13.6941176,16.6333333 13.4470588,16.4666667 Z" id="Path"></path>
                        <path d="M11.0470588,13.9 C10.7647059,13.7333333 10.3764706,13.8 10.2,14.0666667 C10.0941176,14.2 10.0941176,14.3333333 10.0941176,14.5 C10.1294118,14.6333333 10.2,14.7666667 10.3411765,14.8666667 C10.5882353,15.0333333 10.8,15.2333333 11.0470588,15.5333333 C11.1529412,15.6666667 11.3294118,15.7666667 11.5058824,15.7666667 C11.6470588,15.7666667 11.7529412,15.7333333 11.8588235,15.6333333 C12,15.5333333 12.1058824,15.3666667 12.1058824,15.2 C12.1058824,15.0666667 12.0705882,14.9666667 11.9647059,14.8333333 C11.7176471,14.4 11.4,14.1333333 11.0470588,13.9 Z" id="Path"></path>
                    </g>
                </g>
            </g>
        </g>
    </g>
</svg>