<?xml version="1.0" encoding="UTF-8"?>
<svg width="20px" height="20px" viewBox="0 0 20 20" version="1.1" xmlns="http://www.w3.org/2000/svg" xmlns:xlink="http://www.w3.org/1999/xlink">
    <title>13A85E8F-EB47-46D5-855C-C70D6A57583B</title>
    <defs>
        <path d="M9,2 C9.41421356,2 9.75,2.32561109 9.75,2.72727273 C9.75,3.12893436 9.41421356,3.45454545 9,3.45454545 L9,3.45454545 L5.25,3.45454545 C4.83578644,3.45454545 4.5,3.78015655 4.5,4.18181818 L4.5,4.18181818 L4.5,15.8181818 C4.5,16.2198435 4.83578644,16.5454545 5.25,16.5454545 L5.25,16.5454545 L9,16.5454545 C9.41421356,16.5454545 9.75,16.8710656 9.75,17.2727273 C9.75,17.6743889 9.41421356,18 9,18 L9,18 L5.25,18 C4.00735931,18 3,17.0231667 3,15.8181818 L3,15.8181818 L3,4.18181818 C3,2.97683327 4.00735931,2 5.25,2 L5.25,2 Z M13.7196699,6.57664961 C14.0125631,6.29263195 14.4874369,6.29263195 14.7803301,6.57664961 L14.7803301,6.57664961 L17.7803301,9.48574052 C17.8055946,9.51023944 17.829065,9.5364781 17.8505338,9.56425528 C17.8550525,9.57001201 17.8594557,9.57588484 17.8637571,9.58180599 C17.878816,9.60265578 17.8927911,9.62421325 17.9055936,9.64649102 C17.9112975,9.65628605 17.917065,9.66692497 17.922542,9.67766781 C17.933209,9.69867498 17.9427,9.71974263 17.951164,9.74130145 C17.9541973,9.74908543 17.9571741,9.75710334 17.960001,9.76515978 C17.9679423,9.78763044 17.974754,9.81064161 17.980396,9.83408873 C17.9830329,9.84535179 17.9854001,9.85636319 17.9875022,9.8674127 C17.9957004,9.91007143 18,9.95454881 18,10 L17.9964618,9.92922518 C17.9978671,9.94324394 17.9988537,9.9572947 17.9994218,9.97135841 L18,10 C18,10.0094668 17.9998135,10.0188913 17.9994438,10.0282703 C17.9988874,10.0423711 17.9978538,10.0570914 17.9963607,10.0717761 C17.9942679,10.0927113 17.9912944,10.1130349 17.987474,10.1330705 C17.9854001,10.1436368 17.9830329,10.1546482 17.9804005,10.1656119 C17.974754,10.1893584 17.9679423,10.2123696 17.9600237,10.2348838 C17.9571741,10.2428967 17.9541973,10.2509146 17.9510707,10.2588899 C17.9427,10.2802574 17.933209,10.301325 17.922749,10.3218453 C17.917065,10.333075 17.9112975,10.3437139 17.9052395,10.3542379 C17.8927911,10.3757868 17.878816,10.3973442 17.8637493,10.4181029 C17.8392534,10.4519252 17.8114444,10.484088 17.7803301,10.5142595 L17.8505338,10.4357447 C17.8482871,10.4386516 17.8460184,10.4415417 17.8437281,10.4444147 L17.7803301,10.5142595 L14.7803301,13.4233504 C14.4874369,13.7073681 14.0125631,13.7073681 13.7196699,13.4233504 C13.4267767,13.1393327 13.4267767,12.6788491 13.7196699,12.3948314 L13.7196699,12.3948314 L15.439,10.727 L8.25,10.7272727 C7.87030423,10.7272727 7.55650904,10.453669 7.50684662,10.0986866 L7.5,10 C7.5,9.59833836 7.83578644,9.27272727 8.25,9.27272727 L8.25,9.27272727 L15.438,9.272 L13.7196699,7.60516857 C13.4534034,7.34697069 13.4291973,6.94293318 13.6470518,6.658219 Z" id="path-1"></path>
    </defs>
    <g id="Desktop" stroke="none" stroke-width="1" fill="none" fill-rule="evenodd">
        <g id="Navigation_loged-in" transform="translate(-1047.000000, -195.000000)">
            <g id="Group-38" transform="translate(1032.000000, 70.000000)">
                <g id="Log-out-icon" transform="translate(15.000000, 125.000000)">
                    <rect id="Rectangle" x="0" y="0" width="20" height="20"></rect>
                    <mask id="mask-2" fill="white">
                        <use xlink:href="#path-1"></use>
                    </mask>
                    <use id="Combined-Shape" fill="#011E41" fill-rule="nonzero" xlink:href="#path-1"></use>
                </g>
            </g>
        </g>
    </g>
</svg>