<?xml version="1.0" encoding="UTF-8"?>
<svg width="21px" height="28px" viewBox="0 0 21 28" version="1.1" xmlns="http://www.w3.org/2000/svg" xmlns:xlink="http://www.w3.org/1999/xlink">
    <!-- Generator: sketchtool 53 (72520) - https://sketchapp.com -->
    <title>7B03D78B-27EB-428E-BE08-7143ACA96F13</title>
    <desc>Created with sketchtool.</desc>
    <g id="Search-Results" stroke="none" stroke-width="1" fill="none" fill-rule="evenodd" stroke-linejoin="round">
        <g id="03.02_Search-Results-Oven" transform="translate(-229.000000, -1933.000000)" stroke="#011E41" stroke-width="1.5">
            <g id="Support" transform="translate(130.000000, 1852.000000)">
                <g id="1" transform="translate(0.000000, 82.000000)">
                    <g id="Manual" transform="translate(100.000000, 0.000000)">
                        <path d="M20,25.359696 L3.33333333,25.359696 C0,25.359696 0,22.0519055 0,22.0519055 L0,3.30807407 C0,0.000283524904 2.22190476,0.000283524904 2.22190476,0.000283524904 L17.3180952,0.000283524904 C18.1857143,0.000283524904 18.8885714,0.697754789 18.8885714,1.55872542 L18.8885714,20.3980102 C18.8885714,20.3980102 17.2219048,20.3980102 17.2219048,23.207742 C17.2219048,23.207742 17.7780952,25.359696 18.8885714,25.359696" id="Stroke-1"></path>
                        <path d="M18.8890476,20.3980102 L2.77761905,20.3980102 C2.77761905,20.3980102 0.213809524,20.3980102 0.213809524,23.207742" id="Stroke-3"></path>
                        <path d="M14.2857143,0.551266922 L14.2857143,20.566235" id="Stroke-5"></path>
                        <path d="M6.66666667,12.2860792 L11.6666667,12.2860792" id="Stroke-7"></path>
                        <path d="M4.44428571,16.0664112 L12.222381,16.0664112" id="Stroke-9"></path>
                    </g>
                </g>
            </g>
        </g>
    </g>
</svg>