<?xml version="1.0" encoding="UTF-8"?>
<svg width="29px" height="40px" viewBox="0 0 29 40" version="1.1" xmlns="http://www.w3.org/2000/svg" xmlns:xlink="http://www.w3.org/1999/xlink">
    <!-- Generator: sketchtool 52.6 (67491) - http://www.bohemiancoding.com/sketch -->
    <title>5F15A771-4934-4A31-8EA8-9AA997BD3D6C</title>
    <desc>Created with sketchtool.</desc>
    <g id="Where-to-Buy" stroke="none" stroke-width="1" fill="none" fill-rule="evenodd">
        <g id="1.0-Where-to-buy" transform="translate(-844.000000, -244.000000)">
            <g id="Pins" transform="translate(677.000000, 173.000000)">
                <g id="Pin-Copy-2" transform="translate(166.000000, 71.000000)">
                    <g id="Pin" transform="translate(3.000000, 2.000000)">
                        <rect id="Rectangle" fill="#FFFFFF" x="6.25" y="7.2" width="12.5" height="12"></rect>
                        <path d="M12.4529001,18.0193191 C9.07803939,18.0193191 6.3417342,15.4020938 6.3417342,12.174102 C6.3417342,8.94490073 9.07803939,6.32767544 12.4529001,6.32767544 C15.8277608,6.32767544 18.564066,8.94490073 18.564066,12.174102 C18.564066,15.4020938 15.8277608,18.0193191 12.4529001,18.0193191 M12.4529001,0.50059998 C5.9168737,0.50059998 0.499900013,5.56089162 0.499900013,11.8136899 C0.499900013,15.2605902 2.52051718,18.1596149 2.52051718,18.1596149 C12.5110655,32.7998707 12.4529001,35.1486007 12.4529001,35.1486007 C12.4529001,35.1486007 12.3947346,32.7998707 22.385283,18.1596149 C22.385283,18.1596149 24.4059002,15.2605902 24.4059002,11.8136899 C24.4059002,5.56089162 18.9889265,0.50059998 12.4529001,0.50059998" id="Fill-1" fill="#011E41"></path>
                        <path d="M12.4529001,17.0193191 C15.2851842,17.0193191 17.564066,14.8396109 17.564066,12.174102 C17.564066,9.50753722 15.2853494,7.32767544 12.4529001,7.32767544 C9.62045081,7.32767544 7.3417342,9.50753722 7.3417342,12.174102 C7.3417342,14.8396109 9.62061596,17.0193191 12.4529001,17.0193191 Z M12.4529001,32.3486423 C11.7166101,33.8616698 11.4474947,34.71294 11.452971,35.1605978 L11.4530342,35.1649753 L13.4525936,35.1733577 C13.4527087,35.1684045 13.4527087,35.1684045 13.4528291,35.1605978 C13.4583054,34.71294 13.18919,33.8616698 12.4529001,32.3486423 Z M12.4529001,-0.49940002 C19.5527726,-0.49940002 25.4059002,5.01790769 25.4059002,11.8136899 C25.4059002,13.4750739 24.9944112,15.1183631 24.3118737,16.6797734 C23.9042116,17.6123636 23.4932297,18.3188552 23.2112856,18.7232812 C18.8836568,25.0650344 16.1106733,29.5772549 14.5841435,32.5581055 C14.0607329,33.5801679 13.7305348,34.3332634 13.5547424,34.8509009 C13.4709904,35.0975165 13.4534236,35.1853615 13.4528214,35.136133 C13.4527068,35.1287191 13.4527068,35.1287191 13.4525936,35.1238436 L11.4530342,35.1322261 C11.4530934,35.1287191 11.4530934,35.1287191 11.4529788,35.136133 C11.4523765,35.1853615 11.4348097,35.0975165 11.3510578,34.8509009 C11.1752654,34.3332634 10.8450673,33.5801679 10.3216567,32.5581055 C8.79512684,29.5772549 6.02214337,25.0650344 1.70013028,18.7314237 C1.41257047,18.3188552 1.00158853,17.6123636 0.593926432,16.6797734 C-0.0886110798,15.1183631 -0.500099987,13.4750739 -0.500099987,11.8136899 C-0.500099987,5.01790769 5.35302754,-0.49940002 12.4529001,-0.49940002 Z" id="Stroke-3" stroke="#FFFFFF" stroke-width="2" stroke-linecap="round" stroke-linejoin="round"></path>
                    </g>
                </g>
            </g>
        </g>
    </g>
</svg>