<svg width="24" height="24" viewBox="0 0 24 24" fill="none" xmlns="http://www.w3.org/2000/svg">
<path d="M18.3158 15.9191C20.0996 14.2375 21.215 11.8544 21.215 9.21531C21.215 7.1148 20.5266 5.13639 19.2243 3.49399C17.961 1.9008 16.1843 0.755736 14.2217 0.269736C13.9707 0.207673 13.7163 0.360767 13.654 0.612064C13.5918 0.863361 13.7451 1.11752 13.9964 1.17977C17.6946 2.09552 20.2775 5.39988 20.2775 9.21531C20.2775 13.7798 16.564 17.4932 11.9996 17.4932C7.43516 17.4932 3.72168 13.7798 3.72168 9.21531C3.72168 5.39988 6.30459 2.09552 10.0028 1.17977C10.2541 1.11752 10.4073 0.863361 10.3451 0.612064C10.2829 0.360767 10.0287 0.207439 9.77741 0.269736C7.81476 0.755736 6.03815 1.9008 4.77487 3.49399C3.47254 5.13639 2.78418 7.1148 2.78418 9.21531C2.78418 11.8543 3.89957 14.2375 5.68326 15.919L3.22916 20.6125C3.10949 20.8414 3.19752 21.124 3.42599 21.2444L3.44287 21.2533C3.54768 21.3086 3.66946 21.322 3.78393 21.2911L7.18509 20.3703L8.37018 23.6888C8.43281 23.8642 8.59335 23.9859 8.77912 23.9988C8.79004 23.9995 8.80091 23.9999 8.81174 23.9999C8.98527 23.9999 9.14577 23.9037 9.22701 23.7484L11.9996 18.4458L14.7722 23.7484C14.8534 23.9037 15.0139 24 15.1874 23.9999C15.1983 23.9999 15.2091 23.9995 15.22 23.9988C15.4058 23.9859 15.5663 23.8642 15.629 23.6888L16.8141 20.3703L20.2152 21.2912C20.3295 21.3222 20.4514 21.3087 20.5563 21.2534L20.5732 21.2445C20.8016 21.1241 20.8897 20.8415 20.7699 20.6126L18.3158 15.9191ZM8.8927 22.3645L7.92224 19.647C7.83998 19.4166 7.5943 19.2882 7.35829 19.3522L4.54832 20.113L6.41591 16.5412C7.71149 17.5311 9.27604 18.1855 10.9792 18.3739L8.8927 22.3645ZM16.6409 19.3522C16.4048 19.2883 16.1592 19.4166 16.0769 19.647L15.1064 22.3645L13.0199 18.3739C14.7231 18.1855 16.2876 17.5311 17.5832 16.5412L19.4508 20.113L16.6409 19.3522Z" fill="#011E41"/>
<path d="M12 0.9375C12.2589 0.9375 12.4688 0.727633 12.4688 0.46875C12.4688 0.209867 12.2589 0 12 0C11.7411 0 11.5312 0.209867 11.5312 0.46875C11.5312 0.727633 11.7411 0.9375 12 0.9375Z" fill="#011E41"/>
<path d="M11.5395 6.28506L10.4859 8.43598L8.12452 7.90754C7.93991 7.86632 7.74742 7.92888 7.62391 8.0703C7.50046 8.21177 7.4662 8.40894 7.53493 8.58285L8.48669 10.9909H8.42021C8.13776 10.9909 7.90881 11.2168 7.90881 11.4955C7.90881 11.7741 8.13776 12 8.42021 12H15.5797C15.8621 12 16.0911 11.7741 16.0911 11.4955C16.0911 11.2168 15.8621 10.9909 15.5797 10.9909H15.5133L16.465 8.58285C16.5338 8.40894 16.4996 8.21177 16.3761 8.0703C16.2526 7.92883 16.0601 7.86632 15.8755 7.90749L13.5141 8.43593L12.4604 6.28501C12.3751 6.11074 12.1961 6 12 6C11.8038 6.00005 11.6249 6.1108 11.5395 6.28506ZM12.7701 9.23627C12.8737 9.44777 13.1115 9.56074 13.3437 9.50877L15.1621 9.10187L14.4156 10.991H9.58455L8.83792 9.10187L10.6564 9.50877C10.8885 9.56064 11.1264 9.44777 11.23 9.23627L12 7.6641L12.7701 9.23627Z" fill="#011E41"/>
</svg>
