<?xml version="1.0" encoding="UTF-8"?>
<svg width="10px" height="15px" viewBox="0 0 10 15" version="1.1" xmlns="http://www.w3.org/2000/svg" xmlns:xlink="http://www.w3.org/1999/xlink">
    <!-- Generator: sketchtool 53.2 (72643) - https://sketchapp.com -->
    <title>7AA070B4-A01F-4BFC-87DE-EFEF7F07224E</title>
    <desc>Created with sketchtool.</desc>
    <g id="Elements" stroke="none" stroke-width="1" fill="none" fill-rule="evenodd">
        <g id="Icons" transform="translate(-521.000000, -309.000000)" fill="#fff" fill-rule="nonzero">
            <g id="ICO/White_pin" transform="translate(521.000000, 309.000000)">
                <path d="M9.73852349,3.72567285 C9.68714765,3.52597448 9.58281879,3.31319026 9.50563758,3.12689095 C8.58208054,0.824965197 6.56412752,0 4.93473154,0 C2.75348993,0 0.351107383,1.51691415 0.0303691275,4.64363109 L0.0303691275,5.28243619 C0.0303691275,5.30909513 0.0392281879,5.54857309 0.0518120805,5.66836427 C0.231610738,7.15848028 1.36533557,8.74214617 2.21204698,10.2322622 C3.12298658,11.8287703 4.06822148,13.3992807 5.00469799,14.9691299 C5.58214765,13.9446752 6.15751678,12.9067517 6.72181208,11.9088167 C6.87560403,11.6159513 7.05412752,11.3232599 7.20808725,11.0437239 C7.3107047,10.8575986 7.50674497,10.6714733 7.59630872,10.4982947 C8.50721477,8.76863109 9.97342282,7.02560325 9.97342282,5.30906032 L9.97342282,4.60388631 C9.97345638,4.41779582 9.75104027,3.76580046 9.73852349,3.72567285 Z M4.97466443,6.932471 C4.33348993,6.932471 3.63167785,6.5999652 3.28526846,5.68169374 C3.23365772,5.53552204 3.23781879,5.24258701 3.23781879,5.21575406 L3.23781879,4.80327146 C3.23781879,3.63264501 4.19620805,3.10030162 5.02996644,3.10030162 C6.0564094,3.10030162 6.85026846,3.95199536 6.85026846,5.01654292 C6.85026846,6.08105568 6.00110738,6.932471 4.97466443,6.932471 Z" id="Facebook_Places"></path>
            </g>
        </g>
    </g>
</svg>