<?xml version="1.0" encoding="UTF-8"?>
<svg width="20px" height="20px" viewBox="0 0 20 20" version="1.1" xmlns="http://www.w3.org/2000/svg" xmlns:xlink="http://www.w3.org/1999/xlink">
    <title>DED05EA5-C16D-4EEF-B281-0EE7EF7AAAD9</title>
    <g id="Desktop" stroke="none" stroke-width="1" fill="none" fill-rule="evenodd">
        <g id="Navigation_loged-in" transform="translate(-1047.000000, -143.000000)" fill="#011E41" fill-rule="nonzero">
            <g id="Group-38" transform="translate(1032.000000, 70.000000)">
                <g id="Order-history-icon" transform="translate(15.000000, 73.000000)">
                    <path d="M19.3055556,19.9166667 L3.52777778,19.9166667 C3.27777778,19.9166667 3.05555556,19.6944444 3.05555556,19.4444444 L3.05555556,9.08333333 C3.05555556,8.83333333 3.27777778,8.61111111 3.52777778,8.61111111 C3.77777778,8.61111111 4,8.83333333 4,9.08333333 L4,18.9722222 L18.8611111,18.9722222 L18.8611111,1.91666667 L9.19444444,1.91666667 C8.94444444,1.91666667 8.72222222,1.69444444 8.72222222,1.44444444 C8.72222222,1.19444444 8.94444444,0.972222222 9.19444444,0.972222222 L19.3333333,0.972222222 C19.5833333,0.972222222 19.8055556,1.19444444 19.8055556,1.44444444 L19.8055556,19.4444444 C19.7777778,19.6944444 19.5833333,19.9166667 19.3055556,19.9166667 Z" id="Path"></path>
                    <path d="M15.2222222,12.8333333 L7.66666667,12.8333333 C7.41666667,12.8333333 7.19444444,12.6111111 7.19444444,12.3611111 C7.19444444,12.1111111 7.41666667,11.8888889 7.66666667,11.8888889 L15.2222222,11.8888889 C15.4722222,11.8888889 15.6944444,12.1111111 15.6944444,12.3611111 C15.6944444,12.6111111 15.4722222,12.8333333 15.2222222,12.8333333 Z" id="Path"></path>
                    <path d="M15.2222222,16.1388889 L7.66666667,16.1388889 C7.41666667,16.1388889 7.19444444,15.9166667 7.19444444,15.6666667 C7.19444444,15.4166667 7.41666667,15.1944444 7.66666667,15.1944444 L15.2222222,15.1944444 C15.4722222,15.1944444 15.6944444,15.4166667 15.6944444,15.6666667 C15.6944444,15.9166667 15.4722222,16.1388889 15.2222222,16.1388889 Z" id="Path"></path>
                    <path d="M15.1111111,9.5 L7.66666667,9.5 C7.41666667,9.5 7.19444444,9.27777778 7.19444444,9.02777778 C7.19444444,8.77777778 7.41666667,8.55555556 7.66666667,8.55555556 L15.1388889,8.55555556 C15.3888889,8.55555556 15.6111111,8.77777778 15.6111111,9.02777778 C15.5833333,9.30555556 15.3888889,9.5 15.1111111,9.5 Z" id="Path"></path>
                    <g id="Group">
                        <path d="M4,7.63888889 C1.91666667,7.63888889 0.222222222,5.94444444 0.222222222,3.86111111 C0.222222222,1.77777778 1.91666667,0.0833333333 4,0.0833333333 C6.08333333,0.0833333333 7.77777778,1.77777778 7.77777778,3.86111111 C7.77777778,5.94444444 6.08333333,7.63888889 4,7.63888889 Z M4,1.02777778 C2.44444444,1.02777778 1.16666667,2.30555556 1.16666667,3.86111111 C1.16666667,5.41666667 2.44444444,6.69444444 4,6.69444444 C5.55555556,6.69444444 6.83333333,5.41666667 6.83333333,3.86111111 C6.83333333,2.30555556 5.55555556,1.02777778 4,1.02777778 Z" id="Shape"></path>
                        <path d="M5.25,4.77777778 L3.72222222,4.77777778 C3.47222222,4.77777778 3.25,4.55555556 3.25,4.30555556 L3.25,2.25 C3.25,2 3.47222222,1.77777778 3.72222222,1.77777778 C3.97222222,1.77777778 4.19444444,2 4.19444444,2.25 L4.19444444,3.83333333 L5.25,3.83333333 C5.5,3.83333333 5.72222222,4.05555556 5.72222222,4.30555556 C5.72222222,4.55555556 5.5,4.77777778 5.25,4.77777778 Z" id="Path"></path>
                    </g>
                </g>
            </g>
        </g>
    </g>
</svg>