<?xml version="1.0" encoding="UTF-8"?>
<svg width="24px" height="24px" viewBox="0 0 24 24" version="1.1" xmlns="http://www.w3.org/2000/svg" xmlns:xlink="http://www.w3.org/1999/xlink">
    <title>24C6DF12-DDC7-4080-93FD-63CDCA043CF2</title>
    <g id="Desktop" stroke="none" stroke-width="1" fill="none" fill-rule="evenodd">
        <g id="01_[Desktop]_Homepage" transform="translate(-1145.000000, -30.000000)">
            <g id="Profile" transform="translate(1145.000000, 30.000000)">
                <path d="M12,12.6 C6.24705882,12.6 1.55294118,17.1176471 1.23529412,22.8 L22.8,22.8 C22.4470588,17.1176471 17.7529412,12.6 12,12.6 Z" id="Path"></path>
                <circle id="Oval" cx="12" cy="6.28235294" r="5.08235294"></circle>
                <path d="M15,11.7882353 C16.9411765,10.7294118 18.2470588,8.64705882 18.2470588,6.28235294 C18.2823529,2.82352941 15.4588235,0 12,0 C8.54117647,0 5.71764706,2.82352941 5.71764706,6.28235294 C5.71764706,8.64705882 7.02352941,10.7294118 8.96470588,11.7882353 C3.81176471,13.1294118 0,17.8235294 0,23.4 C0,23.7176471 0.282352941,24 0.6,24 L23.4,24 C23.7176471,24 24,23.7176471 24,23.4 C24,17.8235294 20.1882353,13.1294118 15,11.7882353 Z M6.91764706,6.28235294 C6.91764706,3.49411765 9.21176471,1.2 12,1.2 C14.7882353,1.2 17.0823529,3.49411765 17.0823529,6.28235294 C17.0823529,9.07058824 14.7882353,11.3647059 12,11.3647059 C9.21176471,11.3647059 6.91764706,9.07058824 6.91764706,6.28235294 Z M1.23529412,22.8 C1.55294118,17.1176471 6.24705882,12.6 12,12.6 C17.7529412,12.6 22.4470588,17.1176471 22.7647059,22.8 L1.23529412,22.8 Z" id="Shape" fill="#011E41" fill-rule="nonzero"></path>
            </g>
        </g>
    </g>
</svg>