<svg width="24" height="24" viewBox="0 0 24 24" fill="none" xmlns="http://www.w3.org/2000/svg">
<g clip-path="url(#clip0)">
<path d="M19.0282 3.14444H16.8569V2.1731C16.8569 1.85884 16.5141 1.71601 16.1998 1.71601H14.5143C14.1143 0.573235 13.1144 0.00184981 11.9716 0.00184981C10.8414 -0.0406391 9.81342 0.652362 9.42895 1.71601H7.77193C7.45767 1.71601 7.1434 1.85884 7.1434 2.1731V3.14444H4.9721C3.6854 3.15817 2.63275 4.1732 2.57227 5.45853V21.8287C2.57227 23.0857 3.71504 23.9999 4.9721 23.9999H19.0282C20.2852 23.9999 21.428 23.0857 21.428 21.8287V5.45858C21.3675 4.1732 20.3149 3.15817 19.0282 3.14444ZM8.28612 2.85878H9.85744C10.1317 2.82531 10.3521 2.61664 10.4003 2.34454C10.5695 1.60773 11.2159 1.07884 11.9716 1.05893C12.7203 1.08163 13.357 1.61216 13.5143 2.34454C13.5656 2.62605 13.8004 2.8374 14.0857 2.85878H15.7142V5.14432H8.28612V2.85878ZM20.2852 21.8287C20.2852 22.4573 19.6567 22.8572 19.0282 22.8572H4.9721C4.34357 22.8572 3.71504 22.4573 3.71504 21.8287V5.45858C3.77333 4.80435 4.31535 4.29924 4.9721 4.28727H7.14335V5.74431C7.17353 6.06442 7.45078 6.30388 7.77188 6.28715H16.1998C16.5268 6.30503 16.8127 6.06885 16.8568 5.74431V4.28721H19.0281C19.6848 4.29924 20.2269 4.8043 20.2852 5.45853V21.8287H20.2852Z" fill="#011E41"/>
<path d="M9.80028 12.7719C9.58598 12.546 9.23021 12.5332 9.00032 12.7433L7.17187 14.486L6.40051 13.6861C6.18621 13.4602 5.83044 13.4475 5.60055 13.6575C5.37924 13.8894 5.37924 14.2542 5.60055 14.486L6.77186 15.686C6.87325 15.7995 7.01969 15.8623 7.17182 15.8574C7.32253 15.8553 7.46629 15.7936 7.57177 15.686L9.80017 13.5718C10.0211 13.3692 10.0359 13.0258 9.83315 12.8049C9.82276 12.7934 9.81176 12.7824 9.80028 12.7719Z" fill="#011E41"/>
<path d="M17.9997 14.001H11.4288C11.1132 14.001 10.8574 14.2568 10.8574 14.5724C10.8574 14.8879 11.1132 15.1437 11.4288 15.1437H17.9997C18.3153 15.1437 18.5711 14.8879 18.5711 14.5724C18.5711 14.2568 18.3153 14.001 17.9997 14.001Z" fill="#011E41"/>
<path d="M9.80028 8.20157C9.58598 7.97568 9.23021 7.96293 9.00032 8.17303L7.17187 9.91573L6.40051 9.11577C6.18621 8.88987 5.83044 8.87713 5.60055 9.08722C5.37924 9.31908 5.37924 9.68387 5.60055 9.91573L6.77186 11.1156C6.87325 11.2292 7.01969 11.2919 7.17182 11.2871C7.32253 11.2849 7.46629 11.2233 7.57177 11.1156L9.80017 9.00153C10.0211 8.79888 10.0359 8.45547 9.83315 8.2346C9.82276 8.22306 9.81176 8.21207 9.80028 8.20157Z" fill="#011E41"/>
<path d="M17.9997 9.42969H11.4288C11.1132 9.42969 10.8574 9.6855 10.8574 10.0011C10.8574 10.3167 11.1132 10.5725 11.4288 10.5725H17.9997C18.3153 10.5725 18.5711 10.3167 18.5711 10.0011C18.5711 9.6855 18.3153 9.42969 17.9997 9.42969Z" fill="#011E41"/>
<path d="M9.80028 17.3432C9.58598 17.1173 9.23021 17.1046 9.00032 17.3146L7.17187 19.0573L6.40051 18.2573C6.18621 18.0315 5.83044 18.0188 5.60055 18.2288C5.37924 18.4607 5.37924 18.8255 5.60055 19.0573L6.77186 20.2572C6.87325 20.3707 7.01969 20.4335 7.17182 20.4287C7.32253 20.4265 7.46629 20.3649 7.57177 20.2572L9.80017 18.1431C10.0211 17.9405 10.0359 17.597 9.83315 17.3762C9.82276 17.3647 9.81176 17.3537 9.80028 17.3432Z" fill="#011E41"/>
<path d="M17.9997 18.5723H11.4288C11.1132 18.5723 10.8574 18.8281 10.8574 19.1437C10.8574 19.4592 11.1132 19.715 11.4288 19.715H17.9997C18.3153 19.715 18.5711 19.4592 18.5711 19.1437C18.5711 18.8281 18.3153 18.5723 17.9997 18.5723Z" fill="#011E41"/>
</g>
<defs>
<clipPath id="clip0">
<rect width="24" height="24" fill="white"/>
</clipPath>
</defs>
</svg>
