<svg width="24" height="24" viewBox="0 0 24 24" fill="none" xmlns="http://www.w3.org/2000/svg">
<path fill-rule="evenodd" clip-rule="evenodd" d="M6 6C5.173 6 4.5 5.327 4.5 4.5V4H3C2.173 4 1.5 4.673 1.5 5.5V18.5C1.5 19.327 2.173 20 3 20H10C10.276 20 10.5 20.224 10.5 20.5C10.5 20.776 10.276 21 10 21H3C1.621 21 0.5 19.879 0.5 18.5V5.5C0.5 4.121 1.621 3 3 3H4.5V2.5C4.5 2.224 4.724 2 5 2H6.55C6.782 0.86 7.793 0 9 0C10.207 0 11.218 0.86 11.45 2H13C13.276 2 13.5 2.224 13.5 2.5V3H15C16.379 3 17.5 4.121 17.5 5.5V11.5C17.5 11.776 17.276 12 17 12C16.724 12 16.5 11.776 16.5 11.5V5.5C16.5 4.673 15.827 4 15 4H13.5V4.5C13.5 5.327 12.827 6 12 6H6ZM5.5 4.5V3.5007L5.5 3.5L5.5 3.4993V3H7C7.276 3 7.5 2.776 7.5 2.5C7.5 1.673 8.173 1 9 1C9.827 1 10.5 1.673 10.5 2.5C10.5 2.776 10.724 3 11 3H12.5V4.5C12.5 4.775 12.275 5 12 5H6C5.725 5 5.5 4.775 5.5 4.5ZM11.3943 24C11.2633 24 11.1353 23.948 11.0403 23.854C10.9223 23.736 10.8703 23.566 10.9033 23.403L11.6103 19.868C11.6303 19.77 11.6763 19.681 11.7473 19.612L19.5253 11.834C20.1093 11.25 21.0623 11.25 21.6463 11.834L23.0603 13.248C23.6453 13.833 23.6453 14.784 23.0603 15.369L15.2823 23.147C15.2133 23.217 15.1243 23.264 15.0263 23.284L11.4913 23.991C11.4593 23.997 11.4263 24 11.3943 24ZM12.5623 20.211L12.0323 22.862L14.6833 22.332L22.3543 14.661C22.5493 14.466 22.5493 14.149 22.3543 13.954L20.9403 12.54C20.7453 12.345 20.4283 12.345 20.2333 12.54L12.5623 20.211ZM4 9H14C14.276 9 14.5 8.776 14.5 8.5C14.5 8.224 14.276 8 14 8H4C3.724 8 3.5 8.224 3.5 8.5C3.5 8.776 3.724 9 4 9ZM14 12H4C3.724 12 3.5 11.776 3.5 11.5C3.5 11.224 3.724 11 4 11H14C14.276 11 14.5 11.224 14.5 11.5C14.5 11.776 14.276 12 14 12ZM4 15H14C14.276 15 14.5 14.776 14.5 14.5C14.5 14.224 14.276 14 14 14H4C3.724 14 3.5 14.224 3.5 14.5C3.5 14.776 3.724 15 4 15Z" fill="#011E41"/>
</svg>
