<svg width="14" height="14" viewBox="0 0 14 14" fill="none" xmlns="http://www.w3.org/2000/svg">
<path d="M7.5175 0.517212C4.96057 0.517212 2.70406 1.9926 1.65329 4.22922L0.922357 2.71149L0 3.15576L1.51798 6.30673L4.66896 4.78866L4.2246 3.86648L2.58313 4.65709C3.46985 2.7789 5.36751 1.54097 7.5175 1.54097C10.5276 1.54097 12.9765 3.98991 12.9765 7.00003C12.9765 10.0101 10.5276 12.4592 7.5175 12.4592C5.74506 12.4592 4.07612 11.5933 3.05331 10.1429L2.21654 10.7331C3.43135 12.4549 5.41289 13.4828 7.5175 13.4828C11.0918 13.4828 14 10.5747 14 7.00003C14 3.42537 11.0919 0.517212 7.5175 0.517212Z" fill="#011E41"/>
</svg>
