<?xml version="1.0" encoding="UTF-8"?>
<svg width="24px" height="24px" viewBox="0 0 24 24" version="1.1" xmlns="http://www.w3.org/2000/svg" xmlns:xlink="http://www.w3.org/1999/xlink">
    <title>467D9399-6067-4A34-8F3F-05DA188FFF89</title>
    <defs>
        <polygon id="path-1" points="-2.80087502e-05 1.4e-05 23.999972 1.4e-05 23.999972 24.000014 -2.80087502e-05 24.000014"></polygon>
    </defs>
    <g id="Desktop" stroke="none" stroke-width="1" fill="none" fill-rule="evenodd">
        <g id="01_[Desktop]_Homepage" transform="translate(-1096.000000, -30.000000)">
            <g id="Search" transform="translate(1096.000000, 30.000000)">
                <g id="Group-3">
                    <g id="Fill-1-Clipped">
                        <mask id="mask-2" fill="white">
                            <use xlink:href="#path-1"></use>
                        </mask>
                        <g id="path-1"></g>
                    </g>
                </g>
                <path d="M9.39929002,0.115190018 C4.41696998,0.115190018 0.37797,4.15419 0.37797,9.13650998 C0.37797,14.11869 4.41696998,18.15769 9.39929002,18.15769 C14.38161,18.15769 18.42061,14.11869 18.42061,9.13650998 C18.42061,4.15419 14.38161,0.115190018 9.39929002,0.115190018 M9.39928999,1.13644 C13.8104422,1.13644 17.39929,4.72516945 17.39929,9.13651626 C17.39929,13.5477106 13.8104422,17.13644 9.39928999,17.13644 C4.9881378,17.13644 1.39928999,13.5477106 1.39928999,9.13651626 C1.39928999,4.72516945 4.9881378,1.13644 9.39928999,1.13644" id="Fill-4" fill="#011E41" fill-rule="nonzero"></path>
                <polygon id="Fill-6" fill="#011E41" fill-rule="nonzero" points="22.321808 22.879484 14.690548 15.248224 15.878448 14.060324 23.509568 21.691584"></polygon>
                <path d="M14.018744,8.15152598 C13.831424,7.27372598 13.400644,6.471246 12.773024,5.830746 C11.902644,4.942446 10.738544,4.43942602 9.495204,4.414086 L9.52950398,2.734506 C11.214964,2.76866602 12.792904,3.45074602 13.972824,4.65488602 C14.823744,5.52316598 15.407824,6.61096598 15.661784,7.80082598 L14.018744,8.15152598 Z" id="Fill-8" fill="#011E41" fill-rule="nonzero"></path>
                <path d="M15.39577,11.528956 L13.81755,10.952996 C13.99619,10.463556 14.09209,9.951156 14.10273,9.430356 L15.78245,9.46451602 C15.76803,10.170816 15.63783,10.865356 15.39577,11.528956" id="Fill-10" fill="#011E41" fill-rule="nonzero"></path>
            </g>
        </g>
    </g>
</svg>