<?xml version="1.0" encoding="UTF-8"?>
<svg width="21px" height="24px" viewBox="0 0 21 24" version="1.1" xmlns="http://www.w3.org/2000/svg" xmlns:xlink="http://www.w3.org/1999/xlink">
    <title>1F753287-410C-46E8-BC83-BF2E4A90B867</title>
    <g id="Desktop" stroke="none" stroke-width="1" fill="none" fill-rule="evenodd">
        <g id="PDPs---Sold-out" transform="translate(-887.000000, -773.000000)" fill="#011E41" fill-rule="nonzero">
            <g id="Where-to-buy" transform="translate(874.000000, 773.000000)">
                <g id="shopping-bag" transform="translate(13.000000, 0.000000)">
                    <path d="M20.9960722,23.2111816 L19.1519631,5.84051512 C19.1132743,5.47686769 18.8033928,5.20074464 18.4337195,5.20074464 L14.9676386,5.20074464 L14.9676386,4.41906741 C14.9676386,1.98248292 12.9634056,0 10.500089,0 C8.03658738,0 6.03235439,1.98248292 6.03235439,4.41906741 L6.03235439,5.20074464 L2.56627345,5.20074464 C2.19660007,5.20074464 1.88671869,5.47686769 1.8480298,5.84051512 L0.00392071164,23.2111816 C-0.017367459,23.4124146 0.0487183966,23.6132812 0.18551786,23.763794 C0.32250252,23.9141235 0.517613013,24 0.722164349,24 L20.2776434,24 C20.4823799,24 20.6774904,23.9141235 20.8142899,23.763794 C20.9514597,23.6132812 21.0173604,23.4124146 20.9960722,23.2111816 Z M7.47661646,4.41906741 C7.47661646,2.77020263 8.83294926,1.42858884 10.500089,1.42858884 C12.1670437,1.42858884 13.5233765,2.77020263 13.5233765,4.41906741 L13.5233765,5.20074464 L7.47661646,5.20074464 L7.47661646,4.41906741 Z M1.52407968,22.5714112 L3.21658012,6.62933348 L6.03235439,6.62933348 L6.03235439,8.20349119 C6.03235439,8.59790039 6.35574916,8.91778566 6.75448543,8.91778566 C7.1532217,8.91778566 7.47661646,8.59790039 7.47661646,8.20349119 L7.47661646,6.62933348 L13.5233765,6.62933348 L13.5233765,8.20349119 C13.5233765,8.59790039 13.8467712,8.91778566 14.2455075,8.91778566 C14.6442438,8.91778566 14.9676386,8.59790039 14.9676386,8.20349119 L14.9676386,6.62933348 L17.7834128,6.62933348 L19.4759132,22.5714112 L1.52407968,22.5714112 Z" id="Shape"></path>
                </g>
            </g>
        </g>
    </g>
</svg>