<svg width="19" height="20" viewBox="0 0 19 20" fill="none" xmlns="http://www.w3.org/2000/svg">
<path fill-rule="evenodd" clip-rule="evenodd" d="M11.1 17.8544H15.6C16.0971 17.8544 16.5 17.4637 16.5 16.9817V3.01808C16.5 2.53609 16.0971 2.14536 15.6 2.14536H11.1C10.6029 2.14536 10.2 1.75462 10.2 1.27263C10.2 0.790636 10.6029 0.399902 11.1 0.399902H15.6C17.0912 0.399902 18.3 1.5721 18.3 3.01808V16.9817C18.3 18.4277 17.0912 19.5999 15.6 19.5999H11.1C10.6029 19.5999 10.2 19.2092 10.2 18.7272C10.2 18.2452 10.6029 17.8544 11.1 17.8544ZM7.4636 12.8736C7.11213 13.2144 7.11213 13.767 7.4636 14.1078C7.81508 14.4486 8.38492 14.4486 8.7364 14.1078L12.3279 10.6251C12.3634 10.5916 12.396 10.5553 12.4254 10.5166C12.5352 10.3719 12.6 10.1932 12.6 9.99988C12.6 9.99892 12.6 9.99796 12.6 9.997C12.5997 9.89616 12.5817 9.79934 12.5489 9.7093C12.5056 9.59002 12.4348 9.47804 12.3364 9.38266L8.7364 5.89175C8.38492 5.55093 7.81508 5.55093 7.4636 5.89175C7.11213 6.23257 7.11213 6.78515 7.4636 7.12597L9.52732 9.12715H0.9C0.402944 9.12715 0 9.51788 0 9.99988C0 10.4819 0.402944 10.8726 0.9 10.8726H9.5271L7.4636 12.8736Z" fill="#011E41"/>
</svg>
