<svg width="26" height="26" viewBox="0 0 26 26" fill="none" xmlns="http://www.w3.org/2000/svg">
<path fill-rule="evenodd" clip-rule="evenodd" d="M23.9235 6.23946C23.0536 5.3955 21.7239 5.19295 20.6306 5.73803V3.75229C20.6289 2.23294 19.3637 1.00172 17.8025 1H3.82818C2.26693 1.00172 1.00177 2.23294 1 3.75229V22.2477C1.00177 23.7671 2.26693 24.9983 3.82818 25H17.8025C19.3637 24.9983 20.6289 23.7671 20.6306 22.2477V13.8188L24.1716 10.3728C25.2761 9.29795 25.2761 7.5554 24.1716 6.4805L23.9235 6.23946ZM11.4631 16.5846L13.5235 18.6082L10.7192 19.3322L11.4631 16.5846ZM11.9671 15.5156L14.615 18.116L22.259 10.6771L19.6098 8.0992L11.9671 15.5156ZM19.4994 22.2477C19.4983 23.1594 18.7393 23.898 17.8025 23.8991H3.82818C2.89134 23.898 2.13238 23.1594 2.13127 22.2477V3.75229C2.13238 2.8406 2.89134 2.10199 3.82818 2.10092H17.8025C18.7393 2.10199 19.4985 2.8406 19.4994 3.75229V6.65123L10.7691 15.1231C10.698 15.1922 10.647 15.2784 10.6215 15.3728L9.37759 19.9667C9.32633 20.1562 9.38245 20.3579 9.52496 20.4966C9.66748 20.635 9.87473 20.6892 10.0696 20.6389L14.7582 19.4283C14.8545 19.4036 14.9425 19.3544 15.0132 19.2856L19.4994 14.9197V22.2477ZM23.0589 9.89872L23.3715 9.59447C24.0331 8.94918 24.0333 7.90439 23.3715 7.2591L23.1236 7.01785C22.4612 6.37514 21.3896 6.37407 20.7261 7.0157L20.4108 7.32167L23.0589 9.89872Z" fill="#011E41"/>
<path d="M20.6306 5.73803H20.5306V5.89963L20.6753 5.82752L20.6306 5.73803ZM23.9235 6.23946L23.9931 6.16774L23.9931 6.16769L23.9235 6.23946ZM20.6306 3.75229H20.7306V3.75218L20.6306 3.75229ZM17.8025 1L17.8026 0.9H17.8025V1ZM3.82818 1V0.9L3.82807 0.9L3.82818 1ZM1 3.75229L0.9 3.75218V3.75229H1ZM1 22.2477H0.9L0.9 22.2478L1 22.2477ZM3.82818 25L3.82807 25.1H3.82818V25ZM17.8025 25V25.1H17.8026L17.8025 25ZM20.6306 22.2477L20.7306 22.2478V22.2477H20.6306ZM20.6306 13.8188L20.5609 13.7471L20.5306 13.7766V13.8188H20.6306ZM24.1716 10.3728L24.1019 10.3012L24.1716 10.3728ZM24.1716 6.4805L24.2413 6.40884L24.2413 6.40878L24.1716 6.4805ZM13.5235 18.6082L13.5485 18.7051L13.7198 18.6608L13.5936 18.5369L13.5235 18.6082ZM11.4631 16.5846L11.5332 16.5133L11.4113 16.3935L11.3666 16.5585L11.4631 16.5846ZM10.7192 19.3322L10.6227 19.3061L10.5778 19.472L10.7442 19.429L10.7192 19.3322ZM14.615 18.116L14.5449 18.1874L14.6147 18.2559L14.6848 18.1877L14.615 18.116ZM11.9671 15.5156L11.8975 15.4438L11.824 15.5151L11.8971 15.5869L11.9671 15.5156ZM22.259 10.6771L22.3288 10.7488L22.4024 10.6771L22.3288 10.6054L22.259 10.6771ZM19.6098 8.0992L19.6796 8.02753L19.6099 7.95976L19.5402 8.02743L19.6098 8.0992ZM17.8025 23.8991V23.9991H17.8026L17.8025 23.8991ZM19.4994 22.2477L19.5994 22.2478V22.2477H19.4994ZM3.82818 23.8991L3.82806 23.9991H3.82818V23.8991ZM2.13127 22.2477H2.03127L2.03127 22.2478L2.13127 22.2477ZM2.13127 3.75229L2.03127 3.75217V3.75229H2.13127ZM3.82818 2.10092V2.00092L3.82806 2.00092L3.82818 2.10092ZM17.8025 2.10092L17.8026 2.00092H17.8025V2.10092ZM19.4994 3.75229H19.5994V3.7522L19.4994 3.75229ZM19.4994 6.65123L19.569 6.723L19.5994 6.69354V6.65123H19.4994ZM10.7691 15.1231L10.8388 15.1949L10.8388 15.1949L10.7691 15.1231ZM10.6215 15.3728L10.7181 15.3989L10.7181 15.3988L10.6215 15.3728ZM9.37759 19.9667L9.28106 19.9406L9.28106 19.9406L9.37759 19.9667ZM9.52496 20.4966L9.45522 20.5682L9.45527 20.5683L9.52496 20.4966ZM10.0696 20.6389L10.0946 20.7357L10.0696 20.6389ZM14.7582 19.4283L14.7333 19.3315L14.7332 19.3315L14.7582 19.4283ZM15.0132 19.2856L14.9434 19.2139L15.0132 19.2856ZM19.4994 14.9197H19.5994V14.6829L19.4296 14.8481L19.4994 14.9197ZM23.3715 9.59447L23.4413 9.66613L23.4414 9.66605L23.3715 9.59447ZM23.0589 9.89872L22.9891 9.97039L23.0589 10.0383L23.1286 9.97039L23.0589 9.89872ZM23.3715 7.2591L23.4413 7.18751L23.4413 7.18744L23.3715 7.2591ZM23.1236 7.01785L23.1934 6.94618L23.1933 6.94608L23.1236 7.01785ZM20.7261 7.0157L20.6566 6.94381L20.6564 6.94393L20.7261 7.0157ZM20.4108 7.32167L20.3411 7.24991L20.2673 7.32157L20.341 7.39334L20.4108 7.32167ZM20.6753 5.82752C21.7309 5.30118 23.0147 5.49714 23.8538 6.31124L23.9931 6.16769C23.0924 5.29386 21.7169 5.08472 20.586 5.64854L20.6753 5.82752ZM20.5306 3.75229V5.73803H20.7306V3.75229H20.5306ZM17.8023 1.1C19.311 1.10166 20.5289 2.29074 20.5306 3.75241L20.7306 3.75218C20.7288 2.17515 19.4164 0.901778 17.8026 0.9L17.8023 1.1ZM3.82818 1.1H17.8025V0.9H3.82818V1.1ZM1.1 3.75241C1.1017 2.29074 2.31961 1.10166 3.82829 1.1L3.82807 0.9C2.21426 0.901778 0.901835 2.17515 0.9 3.75218L1.1 3.75241ZM1.1 22.2477V3.75229H0.9V22.2477H1.1ZM3.82829 24.9C2.31961 24.8983 1.1017 23.7093 1.1 22.2476L0.9 22.2478C0.901835 23.8249 2.21426 25.0982 3.82807 25.1L3.82829 24.9ZM17.8025 24.9H3.82818V25.1H17.8025V24.9ZM20.5306 22.2476C20.5289 23.7093 19.311 24.8983 17.8023 24.9L17.8026 25.1C19.4164 25.0982 20.7288 23.8249 20.7306 22.2478L20.5306 22.2476ZM20.5306 13.8188V22.2477H20.7306V13.8188H20.5306ZM24.1019 10.3012L20.5609 13.7471L20.7004 13.8905L24.2413 10.4445L24.1019 10.3012ZM24.1019 6.55217C25.166 7.58781 25.166 9.26554 24.1019 10.3012L24.2413 10.4445C25.3862 9.33035 25.3862 7.523 24.2413 6.40884L24.1019 6.55217ZM23.8538 6.31119L24.1019 6.55223L24.2413 6.40878L23.9931 6.16774L23.8538 6.31119ZM13.5936 18.5369L11.5332 16.5133L11.3931 16.656L13.4534 18.6796L13.5936 18.5369ZM10.7442 19.429L13.5485 18.7051L13.4985 18.5114L10.6942 19.2354L10.7442 19.429ZM11.3666 16.5585L10.6227 19.3061L10.8157 19.3583L11.5597 16.6108L11.3666 16.5585ZM14.6851 18.0447L12.0372 15.4442L11.8971 15.5869L14.5449 18.1874L14.6851 18.0447ZM22.1893 10.6054L14.5453 18.0444L14.6848 18.1877L22.3288 10.7488L22.1893 10.6054ZM19.5401 8.17087L22.1893 10.7488L22.3288 10.6054L19.6796 8.02753L19.5401 8.17087ZM12.0368 15.5873L19.6795 8.17096L19.5402 8.02743L11.8975 15.4438L12.0368 15.5873ZM17.8026 23.9991C18.792 23.9979 19.5982 23.2172 19.5994 22.2478L19.3994 22.2476C19.3983 23.1016 18.6866 23.7981 17.8023 23.7991L17.8026 23.9991ZM3.82818 23.9991H17.8025V23.7991H3.82818V23.9991ZM2.03127 22.2478C2.03245 23.2172 2.83866 23.9979 3.82806 23.9991L3.82829 23.7991C2.94402 23.7981 2.23231 23.1016 2.23127 22.2476L2.03127 22.2478ZM2.03127 3.75229V22.2477H2.23127V3.75229H2.03127ZM3.82806 2.00092C2.83866 2.00205 2.03245 2.7828 2.03127 3.75217L2.23127 3.75241C2.23231 2.89839 2.94402 2.20193 3.82829 2.20092L3.82806 2.00092ZM17.8025 2.00092H3.82818V2.20092H17.8025V2.00092ZM19.5994 3.7522C19.5984 2.78278 18.7919 2.00205 17.8026 2.00092L17.8023 2.20092C18.6866 2.20193 19.3985 2.89841 19.3994 3.75239L19.5994 3.7522ZM19.5994 6.65123V3.75229H19.3994V6.65123H19.5994ZM10.8388 15.1949L19.569 6.723L19.4297 6.57947L10.6995 15.0514L10.8388 15.1949ZM10.7181 15.3988C10.7387 15.3221 10.7803 15.2516 10.8388 15.1949L10.6995 15.0514C10.6157 15.1327 10.5552 15.2347 10.525 15.3468L10.7181 15.3988ZM9.47411 19.9929L10.7181 15.3989L10.525 15.3466L9.28106 19.9406L9.47411 19.9929ZM9.5947 20.4249C9.47777 20.3111 9.4325 20.1467 9.47412 19.9929L9.28106 19.9406C9.22016 20.1657 9.28713 20.4046 9.45522 20.5682L9.5947 20.4249ZM10.0446 20.5421C9.88299 20.5838 9.71176 20.5386 9.59465 20.4248L9.45527 20.5683C9.62319 20.7314 9.86647 20.7946 10.0946 20.7357L10.0446 20.5421ZM14.7332 19.3315L10.0446 20.5421L10.0946 20.7357L14.7832 19.5252L14.7332 19.3315ZM14.9434 19.2139C14.8853 19.2704 14.8129 19.311 14.7333 19.3315L14.7831 19.5252C14.8961 19.4962 14.9996 19.4383 15.0829 19.3572L14.9434 19.2139ZM19.4296 14.8481L14.9434 19.2139L15.0829 19.3572L19.5691 14.9914L19.4296 14.8481ZM19.5994 22.2477V14.9197H19.3994V22.2477H19.5994ZM23.3018 9.5228L22.9891 9.82706L23.1286 9.97039L23.4413 9.66613L23.3018 9.5228ZM23.3017 7.3307C23.9232 7.93672 23.923 8.91683 23.3017 9.52288L23.4414 9.66605C24.1431 8.98154 24.1434 7.87205 23.4413 7.18751L23.3017 7.3307ZM23.0539 7.08951L23.3018 7.33077L23.4413 7.18744L23.1934 6.94618L23.0539 7.08951ZM20.7956 7.08758C21.4203 6.4835 22.4303 6.4845 23.054 7.08962L23.1933 6.94608C22.4921 6.26579 21.3589 6.26464 20.6566 6.94381L20.7956 7.08758ZM20.4804 7.39344L20.7957 7.08746L20.6564 6.94393L20.3411 7.24991L20.4804 7.39344ZM23.1286 9.82706L20.4805 7.25001L20.341 7.39334L22.9891 9.97039L23.1286 9.82706Z" fill="#011E41"/>
<path d="M5.28027 7.729H15.0338" stroke="#011E41" stroke-linecap="round"/>
<path d="M5.28027 11.729H11.0338H5.28027Z" fill="#011E41"/>
<path d="M5.28027 11.729H11.0338" stroke="#011E41" stroke-linecap="round"/>
</svg>
