<?xml version="1.0" encoding="UTF-8"?>
<svg width="95px" height="15px" viewBox="0 0 95 15" version="1.1" xmlns="http://www.w3.org/2000/svg" xmlns:xlink="http://www.w3.org/1999/xlink">
    <!-- Generator: Sketch 55.2 (78181) - https://sketchapp.com -->
    <title>Star</title>
    <desc>Created with Sketch.</desc>
    <polygon points="87.68 0 90.21 5.21 95.94 6 91.77 10.01 92.78 15.7 87.68 12.97 82.58 15.7 83.6 10.01 79.43 6 85.16 5.21 87.68 0"></polygon><polygon points="8.25 0 10.78 5.21 16.51 6 12.34 10.01 13.36 15.7 8.25 12.97 3.15 15.7 4.17 10.01 0 6 5.73 5.21 8.25 0"></polygon><polygon points="67.83 0 70.35 5.21 76.08 6 71.91 10.01 72.93 15.7 67.83 12.97 62.72 15.7 63.74 10.01 59.57 6 65.3 5.21 67.83 0"></polygon><polygon points="47.97 0 50.49 5.21 56.22 6 52.05 10.01 53.07 15.7 47.97 12.97 42.87 15.7 43.88 10.01 39.71 6 45.45 5.21 47.97 0"></polygon><polygon points="28.11 0 30.64 5.21 36.37 6 32.2 10.01 33.21 15.7 28.11 12.97 23.01 15.7 24.03 10.01 19.86 6 25.59 5.21 28.11 0"></polygon>
</svg>