<svg width="20" height="20" viewBox="0 0 20 20" fill="none" xmlns="http://www.w3.org/2000/svg">
<g id="filter-icon">
<path id="Shape" fill-rule="evenodd" clip-rule="evenodd" d="M1.03212 3.03809L7.50176 10.6884V15.8333C7.50176 16.149 7.6801 16.4375 7.96242 16.5787L11.2958 18.2453C11.8498 18.5224 12.5018 18.1195 12.5018 17.5V10.6884L18.9714 3.03809C19.4295 2.49645 19.0445 1.66666 18.3351 1.66666H1.66843C0.959075 1.66666 0.574074 2.49645 1.03212 3.03809ZM3.46452 3.33332H16.539L11.0321 9.84522C10.9049 9.99566 10.8351 10.1863 10.8351 10.3833V16.1516L9.16843 15.3183V10.3833C9.16843 10.1863 9.09863 9.99566 8.97141 9.84522L3.46452 3.33332Z" fill="#011E41"/>
<mask id="mask0_3254:16426" style="mask-type:alpha" maskUnits="userSpaceOnUse" x="0" y="1" width="20" height="18">
<path id="Shape_2" fill-rule="evenodd" clip-rule="evenodd" d="M1.03212 3.03809L7.50176 10.6884V15.8333C7.50176 16.149 7.6801 16.4375 7.96242 16.5787L11.2958 18.2453C11.8498 18.5224 12.5018 18.1195 12.5018 17.5V10.6884L18.9714 3.03809C19.4295 2.49645 19.0445 1.66666 18.3351 1.66666H1.66843C0.959075 1.66666 0.574074 2.49645 1.03212 3.03809ZM3.46452 3.33332H16.539L11.0321 9.84522C10.9049 9.99566 10.8351 10.1863 10.8351 10.3833V16.1516L9.16843 15.3183V10.3833C9.16843 10.1863 9.09863 9.99566 8.97141 9.84522L3.46452 3.33332Z" fill="white"/>
</mask>
<g mask="url(#mask0_3254:16426)">
</g>
</g>
</svg>
