<svg width="69" height="81" viewBox="0 0 69 81" fill="none" xmlns="http://www.w3.org/2000/svg">
<path d="M67.0293 14.4004C56.1815 11.4281 45.2687 6.7995 35.4724 1.01559C34.8726 0.661485 34.1283 0.661458 33.5286 1.01558C23.4491 6.96599 13.1271 11.3437 1.97073 14.4004C1.13992 14.6279 0.564148 15.383 0.564148 16.2444V33.2241C0.564148 50.7947 8.67232 62.4295 15.4728 69.0924C19.1328 72.6787 23.0944 75.4636 26.5302 77.3529C28.2482 78.2977 29.8376 79.0201 31.195 79.507C32.5468 79.9919 33.6871 80.25 34.5005 80.25C35.3138 80.25 36.454 79.9919 37.8058 79.507C39.1632 79.0201 40.7526 78.2977 42.4705 77.3529C45.9063 75.4636 49.8678 72.6787 53.5279 69.0924C60.3282 62.4296 68.4359 50.7949 68.4359 33.2241V16.2442C68.4359 15.383 67.8601 14.6278 67.0293 14.4004ZM64.6124 33.2239C64.6124 49.47 57.1303 60.2093 50.8518 66.3611C47.2878 69.8532 43.6008 72.3742 40.5953 74.0211C39.0925 74.8446 37.7623 75.4483 36.7055 75.8455C35.6373 76.2469 34.8767 76.4262 34.5005 76.4262C34.1243 76.4262 33.3636 76.2469 32.2954 75.8455C31.2385 75.4483 29.9083 74.8446 28.4054 74.0211C25.3998 72.3741 21.7126 69.8532 18.1486 66.3611C11.8702 60.2092 4.38785 49.47 4.38785 33.2239V17.6945C14.9827 14.6705 24.8593 10.4661 34.5009 4.87643C43.9063 10.3193 54.2647 14.7279 64.6124 17.6937V33.2239Z" fill="#011E41" stroke="#011E41" stroke-width="0.5"/>
<path d="M10.6336 21.8216C13.68 20.8659 16.7327 19.7873 19.7069 18.6154C20.4326 18.3295 21.2522 18.6859 21.538 19.4114L21.538 19.4115C21.8239 20.137 21.4675 20.9566 20.742 21.2422L20.7419 21.2423C18.0837 22.2897 15.3638 23.2642 12.6409 24.1452L12.4678 24.2012V24.383V29.5859C12.4678 30.3656 11.8356 30.9977 11.0561 30.9977C10.2765 30.9977 9.64429 30.3656 9.64429 29.5859V23.1686C9.64429 22.5518 10.0448 22.0064 10.6336 21.8216ZM10.6336 21.8216L10.5588 21.583L10.6336 21.8216Z" fill="#011E41" stroke="#011E41" stroke-width="0.5"/>
<path d="M21.7936 40.082C20.9257 39.2081 19.5187 39.2081 18.6509 40.082C17.783 40.9559 17.783 42.3728 18.6509 43.2467L29.762 54.4355C30.6298 55.3094 32.0368 55.3094 32.9047 54.4355L57.3491 29.8201C58.217 28.9462 58.217 27.5293 57.3491 26.6554C56.4813 25.7815 55.0743 25.7815 54.2064 26.6554L31.3333 49.6885L21.7936 40.082Z" fill="#011E41"/>
</svg>
