<svg width="81" height="79" viewBox="0 0 81 79" fill="none" xmlns="http://www.w3.org/2000/svg">
<path d="M56.3935 25.0853C56.1164 24.2108 55.1823 23.7264 54.3071 24.0034C51.9205 24.7602 49.4066 25.2981 46.8349 25.6013C44.7201 25.8505 42.5754 25.9409 40.4604 25.8697C39.5433 25.8389 38.7748 26.5576 38.7438 27.4748C38.7259 28.0139 38.9664 28.5017 39.354 28.8184C39.6262 29.0407 39.9706 29.1789 40.3489 29.1914C42.6304 29.268 44.9435 29.1706 47.2236 28.9019C50.0038 28.5744 52.725 27.9922 55.3117 27.1716C56.1868 26.8943 56.6709 25.9601 56.3935 25.0853Z" fill="#011E41" stroke="#011E41" stroke-width="0.25"/>
<path d="M26.2006 61.2651C21.5765 61.2651 17.8281 65.0137 17.8281 69.6376C17.8281 74.2617 21.5767 78.0101 26.2006 78.0101C30.8247 78.0101 34.573 74.2615 34.573 69.6376C34.5732 65.0137 30.8247 61.2651 26.2006 61.2651ZM26.2006 74.0947C23.7391 74.0947 21.7437 72.0993 21.7437 69.6378C21.7437 67.1763 23.7391 65.1809 26.2006 65.1809C28.6621 65.1809 30.6575 67.1763 30.6575 69.6378C30.6576 72.0993 28.6621 74.0947 26.2006 74.0947Z" fill="#011E41" stroke="#011E41" stroke-width="0.25"/>
<path d="M61.0238 61.2651C56.3997 61.2651 52.6514 65.0137 52.6514 69.6376C52.6514 74.2617 56.3999 78.0101 61.0238 78.0101C65.6477 78.0101 69.3963 74.2615 69.3963 69.6376C69.3963 65.0137 65.6479 61.2651 61.0238 61.2651ZM61.0238 74.0947C58.5623 74.0947 56.5669 72.0993 56.5669 69.6378C56.5669 67.1763 58.5623 65.1809 61.0238 65.1809C63.4853 65.1809 65.4807 67.1763 65.4807 69.6378C65.4809 72.0993 63.4853 74.0947 61.0238 74.0947Z" fill="#011E41" stroke="#011E41" stroke-width="0.25"/>
<path d="M79.7215 13.1985L79.7186 13.1954C79.3161 12.7557 78.7655 12.4805 78.1725 12.4222L78.1725 12.4218L78.162 12.4216L18.5942 11.5981L16.9724 6.64278L16.9725 6.64277L16.9718 6.6409C15.7925 3.22163 12.5906 0.913278 8.97393 0.875007V0.875H8.9726H2.83279C1.7515 0.875 0.875 1.7515 0.875 2.83279C0.875 3.91407 1.7515 4.79058 2.83279 4.79058H8.97121C10.9109 4.834 12.6187 6.0795 13.253 7.91307C13.253 7.91333 13.2531 7.91358 13.2532 7.91384L24.8759 42.9648L23.9786 45.0286L23.9785 45.0286L23.9767 45.0333C22.9401 47.7063 23.2514 50.7149 24.8132 53.1191L24.8134 53.1195C26.3609 55.482 28.9643 56.94 31.7872 57.0249L31.7872 57.0249H31.791H67.4387C68.52 57.0249 69.3965 56.1484 69.3965 55.0671C69.3965 53.9859 68.52 53.1094 67.4387 53.1094H31.7924C30.2639 53.0706 28.8571 52.2663 28.048 50.9688L28.048 50.9688C27.2468 49.6854 27.0817 48.1046 27.5997 46.6831L28.3018 45.1035L66.8101 41.0789L66.8108 41.0788C71.1011 40.6063 74.6302 37.4859 75.6245 33.2856L80.0214 14.8738C80.2319 14.3026 80.1174 13.6618 79.7214 13.1986L79.7215 13.1985ZM71.8074 32.4027L71.8068 32.4051C71.2238 35.0222 69.0019 36.9526 66.329 37.1645L66.3261 37.1648L28.3042 41.0949L19.8682 15.515L75.7108 16.3349L71.8074 32.4027Z" fill="#011E41" stroke="#011E41" stroke-width="0.25"/>
</svg>
